<?xml version="1.0" encoding="utf-8"?>
<!-- Generator: Adobe Illustrator 24.2.3, SVG Export Plug-In . SVG Version: 6.00 Build 0)  -->
<svg version="1.1" id="Capa_1" xmlns="http://www.w3.org/2000/svg" xmlns:xlink="http://www.w3.org/1999/xlink" x="0px" y="0px"
	 viewBox="0 0 600 600" style="enable-background:new 0 0 600 600;" xml:space="preserve">
<style type="text/css">
	.st0{clip-path:url(#SVGID_2_);}
	.st1{clip-path:url(#SVGID_4_);}
</style>
<g>
	<path d="M353.7,380c-17,0-30.6,13.7-30.6,30.6c0,17,13.7,30.6,30.6,30.6c17,0,30.6-13.7,30.6-30.6S370.6,380,353.7,380L353.7,380z
		 M353.7,426c-8.4,0-15.3-6.9-15.3-15.3c0-8.4,6.9-15.3,15.3-15.3c8.4,0,15.3,6.9,15.3,15.3C369,419.2,362.1,426,353.7,426
		L353.7,426z"/>
	<g>
		<g>
			<defs>
				<rect id="SVGID_1_" x="70" y="119.4" width="460" height="361.2"/>
			</defs>
			<clipPath id="SVGID_2_">
				<use xlink:href="#SVGID_1_"  style="overflow:visible;"/>
			</clipPath>
			<path class="st0" d="M185,441.4c12.7,0,23-10.3,23-23c0-12.7-10.3-23-23-23c-12.7,0-23,10.3-23,23S172.2,441.4,185,441.4
				L185,441.4z M185,410.7c4.2,0,7.7,3.4,7.7,7.7s-3.4,7.7-7.7,7.7c-4.2,0-7.7-3.4-7.7-7.7C177.3,414.2,180.8,410.7,185,410.7
				L185,410.7z"/>
		</g>
		<g>
			<defs>
				<rect id="SVGID_3_" x="70" y="119.4" width="460" height="361.2"/>
			</defs>
			<clipPath id="SVGID_4_">
				<use xlink:href="#SVGID_3_"  style="overflow:visible;"/>
			</clipPath>
			<path class="st1" d="M506.5,422.2l22.4-38.7c1.4-2.4,1.4-5.3,0-7.7l-22.4-38.7c-1.4-2.4-3.9-3.9-6.7-3.9h-44.7
				c-2.7,0-5.3,1.4-6.7,3.9L428.4,372l-28.9-26.6v-28.1c8.7-3,14.7-11,15.3-20.1c0.6-9.2-4.4-17.8-12.7-21.9l38.3-95.5
				c3.3-4,5.1-9.1,5.2-14.3v-0.1c0-0.1,0-0.1,0-0.2c-0.1-12.6-10.4-22.7-23-22.7h-92.1c-6.5,0-12.7,2.8-17,7.7h-14.4
				c-3.7-17.8-19.3-30.6-37.6-30.6H135.4l-17.5,0.3c-15.8,0.2-29.7,10-35.3,24.8l-11.7,30.9c-1.8,4.7-1.1,10,1.7,14.1
				c2.9,4.2,7.6,6.6,12.6,6.6h22.5c5.8,0,11.1-3.2,13.7-8.4l11.1-22.3h52c-23,13.8-39.9,35.7-47.5,61.4h-15.8
				c-11.2,0-20.8,8.1-22.7,19.2l-5.4,32.6c-5.7,4.9-8.6,12.2-7.7,19.7c0.8,7.4,5.2,14,11.8,17.5l16.3,61.4
				c2.2,10.6,11.7,18.2,22.6,18.2h0.5c-12,24.9-2.9,54.9,20.9,69h-41.5c-4.2,0-7.7,3.4-7.7,7.7s3.4,7.7,7.7,7.7h406.3
				c4.2,0,7.7-3.4,7.7-7.7s-3.4-7.7-7.7-7.7H383.2c3.9-2.1,7.5-4.7,10.8-7.7h79.3c10.1,0,18.3-8.2,18.3-18.3c0-4.6-1.8-9-4.9-12.3
				h13.2C502.7,426,505.2,424.6,506.5,422.2L506.5,422.2z M385.7,443.7c-13.3,13-33.1,16.7-50.3,9.4c-17.1-7.3-28.1-24.3-27.9-42.9
				c0.2-18.6,11.7-35.2,28.9-42.2c17.3-6.9,37-2.7,50,10.7c8.5,8.7,13.2,20.5,13.1,32.6C399.5,423.5,394.5,435.1,385.7,443.7
				L385.7,443.7z M392,303.4H108.3c-4.2,0-7.7-3.4-7.7-7.7c0-4.2,3.4-7.7,7.7-7.7H392c4.2,0,7.7,3.4,7.7,7.7
				C399.6,300,396.2,303.4,392,303.4L392,303.4z M340.3,272.7l64.9-84.3h15.3l-33.7,84.3H340.3L340.3,272.7z M335.1,254.3l-2.5-20
				l34.4-45.9h18.8L335.1,254.3z M329.9,212.4l-3.1-24.5c1.3,0.2,2.6,0.4,3.9,0.4h17.3L329.9,212.4z M330.6,157.7h92
				c3.8,0,7,2.9,7.4,6.7l-2.7,6.9c-1.3,1.1-3,1.7-4.7,1.7h-92c-4.2,0-7.7-3.4-7.7-7.7C322.9,161.1,326.4,157.7,330.6,157.7
				L330.6,157.7z M309.6,174.7l7.3,58.5v0.2l4.9,39.3h-52.6V165.4h38.3C307.6,168.6,308.3,171.8,309.6,174.7L309.6,174.7z
				 M132.6,150c-5.8,0-11.1,3.3-13.7,8.4l-11.1,22.2H85.3L97,149.8c3.3-8.8,11.7-14.7,21.1-14.8l17.5-0.3h126
				c9.7,0,18.4,6.2,21.7,15.3L132.6,150L132.6,150z M239.8,165.4h14.2v107.3h-21.3l5.8-29.1c0.6-4.1-2-7.9-6.1-8.7
				c-4.1-0.8-8,1.7-8.9,5.7l-6.4,32.1h-15l5.8-29.1c0.6-4.1-2-7.9-6.1-8.7c-4.1-0.8-8,1.7-8.9,5.7l-6.4,32.1h-15l5.8-29.1
				c0.6-2.7-0.3-5.6-2.4-7.4s-5-2.4-7.7-1.5s-4.6,3.2-5,6l-6.4,32.1H141l9.5-37.6C160.7,194.1,197.6,165.4,239.8,165.4L239.8,165.4z
				 M113.7,248.4c0.6-3.7,3.8-6.4,7.5-6.4H133l-7.7,30.6h-15.7L113.7,248.4z M128.4,373.6l-14.5-54.9h270.3v38.9
				c-19-11-42.4-11.1-61.4-0.1c-19,11-30.7,31.2-30.6,53.1H238c-2.9-20-16.7-36.7-35.9-43.2c-19.1-6.4-40.3-1.6-54.7,12.5h-11.5
				C132.3,380,129.1,377.4,128.4,373.6L128.4,373.6z M146.6,418.4c0-21.2,17.2-38.3,38.3-38.3c21.2,0,38.3,17.2,38.3,38.3
				c0,21.2-17.2,38.3-38.3,38.3S146.7,439.5,146.6,418.4L146.6,418.4z M212.5,464.3C226.3,456,235.7,442,238,426h56.3
				c4.2,16.3,15,30.1,29.7,38.3H212.5z M473.3,441.4h-66.7c13.2-22.7,10.5-51.4-7-71.1v-4l60.6,56.1c0.6,1,1.6,1.8,2.6,2.4
				l12.5,11.6c0.6,0.6,0.9,1.3,0.9,2.1c0,0.8-0.3,1.6-0.9,2.1C474.9,441.1,474.1,441.4,473.3,441.4L473.3,441.4z M476.5,410.7
				l7.2-28.8c1-4.1-1.4-8.3-5.6-9.3c-4.1-1-8.3,1.4-9.3,5.6l-6.4,25.3l-15-13.9l-5.7-10l17.9-31h35.8l18,31.1l-18,31.1h-18.9V410.7z
				"/>
		</g>
	</g>
	<path d="M85.3,464.3h-7.7c-4.2,0-7.7,3.4-7.7,7.7s3.4,7.7,7.7,7.7h7.7c4.2,0,7.7-3.4,7.7-7.7C93,467.8,89.5,464.3,85.3,464.3
		L85.3,464.3z"/>
</g>
</svg>
