<?xml version="1.0" encoding="utf-8"?>
<!-- Generator: Adobe Illustrator 24.2.3, SVG Export Plug-In . SVG Version: 6.00 Build 0)  -->
<svg version="1.1" id="Capa_1" xmlns="http://www.w3.org/2000/svg" xmlns:xlink="http://www.w3.org/1999/xlink" x="0px" y="0px"
	 viewBox="0 0 600 600" style="enable-background:new 0 0 600 600;" xml:space="preserve">
<g>
	<path d="M422.6,500H177.4c-24.9,0-45.1-20.2-45.2-45.2V203.2c0-17.8,14.5-32.2,32.3-32.3h61.8l57.7-57.7
		c8.4-8.5,19.9-13.3,31.9-13.2h106.5c24.9,0,45.1,20.2,45.2,45.2v309.7C467.7,479.8,447.5,500,422.6,500z M164.5,183.9
		c-10.7,0-19.4,8.7-19.4,19.4v251.6c0,17.8,14.5,32.2,32.3,32.3h245.2c17.8,0,32.2-14.5,32.3-32.3V145.2c0-17.8-14.5-32.2-32.3-32.3
		H316c-8.6,0-16.8,3.4-22.8,9.4L233.6,182c-1.2,1.2-2.9,1.9-4.6,1.9H164.5z"/>
	<path d="M229,138.7h-77.4c-3.6,0-6.5-2.9-6.5-6.5v-25.8c0-3.6,2.9-6.5,6.5-6.5H229c3.6,0,6.5,2.9,6.5,6.5v25.8
		C235.5,135.8,232.6,138.7,229,138.7z M158.1,125.8h64.5v-12.9h-64.5V125.8z"/>
	<path d="M435.5,203.2H293.5c-3.6,0-6.5-2.9-6.5-6.5v-12.9c0-32.1,26-58,58.1-58.1h77.4c10.7,0,19.4,8.7,19.4,19.4v51.6
		C441.9,200.3,439,203.2,435.5,203.2z M300,190.3h129v-45.2c0-3.6-2.9-6.5-6.5-6.5h-77.4c-24.9,0-45.1,20.2-45.2,45.2V190.3z"/>
	<path d="M396.8,474.2h-38.7c-3.6,0-6.5-2.9-6.5-6.5V261.3c0-24.9,20.2-45.1,45.2-45.2h38.7c3.6,0,6.5,2.9,6.5,6.5V429
		C441.9,454,421.7,474.2,396.8,474.2z M364.5,461.3h32.3c17.8,0,32.2-14.5,32.3-32.3V229h-32.3c-17.8,0-32.2,14.5-32.3,32.3V461.3z"
		/>
	<rect x="158.1" y="125.8" width="12.9" height="51.6"/>
	<rect x="209.7" y="125.8" width="12.9" height="51.6"/>
	<path d="M203.2,325.8c-24.9,0-45.2-22.7-45.2-50.7c0-2.8,0.2-5.6,0.6-8.3c0.1-0.8,0.4-1.6,0.8-2.3l38.2-64.5
		c2.1-3.1,6.3-3.9,9.3-1.8c0.7,0.5,1.3,1.1,1.8,1.8l38.2,64.5c0.4,0.7,0.7,1.5,0.8,2.3c0.4,2.8,0.6,5.5,0.6,8.3
		C248.4,303.1,228.1,325.8,203.2,325.8z M171.3,269.9c-0.2,1.7-0.3,3.5-0.3,5.2c0,20.8,14.5,37.8,32.3,37.8s32.3-16.9,32.3-37.8
		c0-1.7-0.1-3.5-0.3-5.2l-32-54L171.3,269.9z"/>
	<rect x="158.1" y="338.7" width="90.3" height="12.9"/>
	<rect x="158.1" y="364.5" width="180.6" height="12.9"/>
	<rect x="158.1" y="390.3" width="180.6" height="12.9"/>
	<rect x="158.1" y="416.1" width="180.6" height="12.9"/>
	<rect x="158.1" y="441.9" width="180.6" height="12.9"/>
</g>
</svg>
