<?xml version="1.0" encoding="utf-8"?>
<!-- Generator: Adobe Illustrator 24.2.3, SVG Export Plug-In . SVG Version: 6.00 Build 0)  -->
<svg version="1.1" id="Capa_1" xmlns="http://www.w3.org/2000/svg" xmlns:xlink="http://www.w3.org/1999/xlink" x="0px" y="0px"
	 viewBox="0 0 600 600" style="enable-background:new 0 0 600 600;" xml:space="preserve">
<style type="text/css">
	.st0{fill:#000001;}
	.st1{clip-path:url(#SVGID_2_);}
</style>
<g>
	<g>
		<path class="st0" d="M411.2,471c0,20.5,16.6,37.1,37.1,37.1c20.5,0,37.1-16.6,37.1-37.1s-16.6-37.1-37.1-37.1
			C427.9,433.9,411.3,450.5,411.2,471z M426.1,471c0-12.3,10-22.3,22.3-22.3c12.3,0,22.3,10,22.3,22.3s-10,22.3-22.3,22.3
			C436,493.2,426.1,483.3,426.1,471z"/>
		<path class="st0" d="M218.4,456.1L218.4,456.1c0-28.7-23.2-51.9-51.9-51.9s-51.9,23.2-51.9,51.9s23.2,51.9,51.9,51.9
			C195.1,508,218.3,484.8,218.4,456.1z M203.5,456.1c0,20.5-16.6,37.1-37.1,37.1s-37.1-16.6-37.1-37.1c0-20.5,16.6-37.1,37.1-37.1
			C186.9,419.1,203.5,435.7,203.5,456.1z"/>
		<path class="st0" d="M277.7,400.6v63h-15.2c0.2-2.5,0.4-4.9,0.4-7.4c0.2-44.5-30.3-83.3-73.5-93.7c-51.6-12.5-103.5,19.2-116,70.8
			s19.2,103.5,70.8,116c51.6,12.5,103.5-19.2,116-70.8h17.5v7.4c0,4.1,3.3,7.4,7.4,7.4h59.3c4.1,0,7.4-3.3,7.4-7.4v-7.4h15.2
			c3,33.7,26.5,62,59.1,71.2c43.4,12.3,88.5-12.9,100.7-56.3s-12.9-88.5-56.3-100.7v-18c0-32.8-26.6-59.3-59.3-59.3h-14.8v-37.1
			c0-4.1-3.3-7.4-7.4-7.4h-7.4v-37.1c0-4.1,3.3-7.4,7.4-7.4h7.4v-14.8H389c-12.3,0-22.3,10-22.3,22.3v37.1h-7.4
			c-4.1,0-7.4,3.3-7.4,7.4v22.3h-15.8l-12.7-89h6.3c4.1,0,7.4-3.3,7.4-7.4v-29.7c0-4.1-3.3-7.4-7.4-7.4H136.8
			c-4.1,0-7.4,3.3-7.4,7.4v29.7c0,4.1,3.3,7.4,7.4,7.4h7.4v89H99.7c-2,0-3.9,0.8-5.2,2.2l-22.3,22.3c-1.4,1.4-2.2,3.3-2.2,5.2v44.5
			c0,2,0.8,3.9,2.2,5.2c2.9,2.9,7.6,2.9,10.5,0l34.9-34.9h83.5L277.7,400.6z M248,456.1c0,45.1-36.5,81.6-81.6,81.6
			s-81.6-36.5-81.6-81.6s36.5-81.6,81.6-81.6C211.5,374.6,248,411.1,248,456.1z M151.6,315.2c4.1,0,7.4-3.3,7.4-7.4v-44.5h14.8v44.5
			c0,4.1,3.3,7.4,7.4,7.4h51.9V330H114.5c-2,0-3.9,0.8-5.2,2.2l-24.4,24.4v-23.5l17.9-17.9H151.6z M322.2,196.5h-178v-14.8h178
			V196.5z M308.4,211.3l13.9,97v11.2l-41.4-41.4l9.6-9.6L279.9,258l-29.7,29.7l10.5,10.5l9.6-9.6l51.9,51.9v19.2H303L290.4,347
			l-10.5,10.5l14.8,14.8c1.4,1.4,3.3,2.2,5.2,2.2h22.3v22.3c0,4.1,3.3,7.4,7.4,7.4h7.4V419h-44.5v-22.3c0-2.4-1.1-4.6-3.1-6
			l-63.2-45.9h14.3c4.1,0,7.4-3.3,7.4-7.4v-29.7c0-4.1-3.3-7.4-7.4-7.4h-51.9v-44.5c0-4.1-3.3-7.4-7.4-7.4H159v-37.1H308.4z
			 M292.5,433.9h44.5v14.8h-44.5V433.9z M359.3,374.5h7.4v14.8h-29.7v-74.2h14.8v51.9C351.9,371.2,355.2,374.5,359.3,374.5z
			 M381.6,359.7h-14.8v-74.2h14.8V359.7z M455.7,389.7c-2.4-0.2-4.9-0.4-7.4-0.4c-2.5,0-5,0.2-7.4,0.4v-15.2h14.8V389.7z M381.6,471
			L381.6,471c0-36.9,29.9-66.8,66.8-66.8c36.9,0,66.8,29.9,66.8,66.8s-29.9,66.8-66.8,66.8C411.5,537.7,381.6,507.8,381.6,471z
			 M351.9,463.5v-59.3h22.3c4.1,0,7.4-3.3,7.4-7.4v-22.3h7.4c4.1,0,7.4-3.3,7.4-7.4V330h14.8c18.8,0,35.6,11.9,41.9,29.7h-19.7
			c-4.1,0-7.4,3.3-7.4,7.4v25.4c-32.4,9.2-55.8,37.5-59,71H351.9z M292.5,478.4v-14.8h44.5v14.8H292.5z"/>
	</g>
	<g>
		<path d="M424.7,171.6c-0.2,1.8-1.5,3.3-3.3,3.6c-6.1,1.1-12.7-3.1-13.1-10.2c-0.8-16.4-12.4-30.4-28.2-34.3
			c-6.8-1.7-9.7-9-7.4-14.8c0.7-1.7,2.4-2.7,4.2-2.5C406.2,116.1,427.7,142.2,424.7,171.6L424.7,171.6z M424.7,171.6"/>
		<g>
			<defs>
				
					<rect id="SVGID_1_" x="355.6" y="65.1" transform="matrix(0.7722 -0.6354 0.6354 0.7722 6.9051 290.7841)" width="106.7" height="141.3"/>
			</defs>
			<clipPath id="SVGID_2_">
				<use xlink:href="#SVGID_1_"  style="overflow:visible;"/>
			</clipPath>
			<path class="st1" d="M432.9,171.8c3-33.8-21.5-62.9-54.7-66.5c-1.4-0.2-2.7-1-3.3-2.3c-1.9-4.1-1.1-9,2.1-12.2
				c0.9-0.9,2.1-1.3,3.4-1.2c41.6,4.6,71.9,41.4,68.3,83.1c-0.1,1.2-0.8,2.4-1.8,3.1c-3.7,2.5-8.7,2.4-12.3-0.3
				C433.4,174.6,432.8,173.2,432.9,171.8L432.9,171.8z M432.9,171.8"/>
			<path class="st1" d="M461.6,179.8c-0.5-0.1-1-0.1-1.5-0.2c-2-0.5-3.4-2.4-3.2-4.4c4.9-47.5-29.9-89.8-77.4-94.1
				c-2.1-0.2-3.7-2-3.8-4.1c0-0.3,0-0.7,0-1c0.6-6.9,6.6-10.9,12.5-9.8c49.7,8.8,85.9,52.8,85,103.3
				C473.3,175.6,467.8,180.4,461.6,179.8L461.6,179.8z M461.6,179.8"/>
		</g>
		<path d="M383.6,170.9c-4.7,3.9-11.7,3.2-15.5-1.5c-3.9-4.7-3.2-11.7,1.5-15.5c4.7-3.9,11.7-3.2,15.5,1.5
			C389,160.1,388.3,167.1,383.6,170.9L383.6,170.9z M383.6,170.9"/>
	</g>
</g>
</svg>
