<?xml version="1.0" encoding="utf-8"?>
<!-- Generator: Adobe Illustrator 24.2.3, SVG Export Plug-In . SVG Version: 6.00 Build 0)  -->
<svg version="1.1" id="Capa_1" xmlns="http://www.w3.org/2000/svg" xmlns:xlink="http://www.w3.org/1999/xlink" x="0px" y="0px"
	 viewBox="0 0 600 600" style="enable-background:new 0 0 600 600;" xml:space="preserve">
<style type="text/css">
	.st0{fill:#000001;}
</style>
<g>
	<path class="st0" d="M151.7,374.1c-20.5,0-37.1,16.6-37.1,37.1s16.6,37.1,37.1,37.1s37.1-16.6,37.1-37.1
		C188.7,390.7,172.1,374.2,151.7,374.1z M151.7,433.5c-12.3,0-22.3-10-22.3-22.3s10-22.3,22.3-22.3s22.3,10,22.3,22.3
		S164,433.5,151.7,433.5z"/>
	<path class="st0" d="M433.6,448.3c28.7,0,51.9-23.2,51.9-51.9c0-28.7-23.2-51.9-51.9-51.9s-51.9,23.2-51.9,51.9l0,0
		C381.7,425.1,404.9,448.3,433.6,448.3z M433.6,359.3c20.5,0,37.1,16.6,37.1,37.1c0,20.5-16.6,37.1-37.1,37.1s-37.1-16.6-37.1-37.1
		C396.5,375.9,413.1,359.3,433.6,359.3z"/>
	<path class="st0" d="M398.9,285.1h83.5l34.9,34.9c2.9,2.9,7.6,2.9,10.5,0c1.4-1.4,2.2-3.3,2.2-5.2v-44.5c0-2-0.8-3.9-2.2-5.2
		l-22.3-22.3c-1.4-1.4-3.3-2.2-5.2-2.2h-44.5v-89h7.4c4.1,0,7.4-3.3,7.4-7.4v-29.7c0-4.1-3.3-7.4-7.4-7.4H270.4
		c-4.1,0-7.4,3.3-7.4,7.4v29.7c0,4.1,3.3,7.4,7.4,7.4h6.3l-12.7,89h-15.8v-22.3c0-4.1-3.3-7.4-7.4-7.4h-7.4v-37.1
		c0-12.3-10-22.3-22.3-22.3h-7.4v14.8h7.4c4.1,0,7.4,3.3,7.4,7.4v37.1H211c-4.1,0-7.4,3.3-7.4,7.4v37.1h-14.8
		c-32.8,0-59.3,26.6-59.3,59.3v18C86,345,60.8,390.1,73.1,433.5s57.4,68.6,100.7,56.3c32.5-9.2,56-37.5,59.1-71.2h15.2v7.4
		c0,4.1,3.3,7.4,7.4,7.4h59.3c4.1,0,7.4-3.3,7.4-7.4v-7.4h17.5c12.5,51.6,64.4,83.3,116,70.8c51.6-12.5,83.3-64.4,70.8-116
		c-12.5-51.6-64.4-83.3-116-70.8c-43.3,10.5-73.7,49.2-73.5,93.7c0,2.5,0.2,5,0.4,7.4h-15.2v-63L398.9,285.1z M433.6,314.8
		c45.1,0,81.6,36.5,81.6,81.6S478.6,478,433.6,478S352,441.5,352,396.4C352,351.3,388.5,314.8,433.6,314.8z M497.3,255.4l17.9,17.9
		v23.5l-24.4-24.4c-1.4-1.4-3.3-2.2-5.2-2.2H366.8v-14.8h51.9c4.1,0,7.4-3.3,7.4-7.4v-44.5H441V248c0,4.1,3.3,7.4,7.4,7.4H497.3z
		 M277.8,121.9h178v14.8h-178V121.9z M441,151.6v37.1h-22.3c-4.1,0-7.4,3.3-7.4,7.4v44.5h-51.9c-4.1,0-7.4,3.3-7.4,7.4v29.7
		c0,4.1,3.3,7.4,7.4,7.4h14.3L310.5,331c-1.9,1.4-3.1,3.6-3.1,6v22.3h-44.5v-14.8h7.4c4.1,0,7.4-3.3,7.4-7.4v-22.3H300
		c2,0,3.9-0.8,5.2-2.2l14.8-14.8l-10.5-10.5L297,299.9h-19.2v-19.2l51.9-51.9l9.6,9.6l10.5-10.5l-29.7-29.7l-10.5,10.5l9.6,9.6
		l-41.4,41.4v-11.2l13.9-97H441z M307.5,389h-44.5v-14.8h44.5V389z M248.1,307.4v-51.9h14.8v74.2h-29.7v-14.8h7.4
		C244.8,314.8,248.1,311.5,248.1,307.4z M218.4,225.8h14.8v74.2h-14.8V225.8z M144.3,314.8h14.8V330c-2.4-0.2-4.9-0.4-7.4-0.4
		s-5,0.2-7.4,0.4V314.8z M151.7,478c-36.9,0-66.8-29.9-66.8-66.8s29.9-66.8,66.8-66.8s66.8,29.9,66.8,66.8l0,0
		C218.4,448.1,188.5,477.9,151.7,478z M232.9,403.8c-3.1-33.6-26.5-61.8-59-71v-25.4c0-4.1-3.3-7.4-7.4-7.4h-19.7
		c6.3-17.8,23.1-29.7,41.9-29.7h14.8v37.1c0,4.1,3.3,7.4,7.4,7.4h7.4V337c0,4.1,3.3,7.4,7.4,7.4h22.3v59.3H232.9z M262.9,418.6
		v-14.8h44.5v14.8H262.9z"/>
</g>
</svg>
