<?xml version="1.0" encoding="utf-8"?>
<!-- Generator: Adobe Illustrator 24.2.3, SVG Export Plug-In . SVG Version: 6.00 Build 0)  -->
<svg version="1.1" id="Capa_1" xmlns="http://www.w3.org/2000/svg" xmlns:xlink="http://www.w3.org/1999/xlink" x="0px" y="0px"
	 viewBox="0 0 600 600" style="enable-background:new 0 0 600 600;" xml:space="preserve">
<style type="text/css">
	.st0{stroke:#FFFFFF;stroke-width:4;stroke-miterlimit:10;}
</style>
<g id="_30-technical">
	<g id="linear_color">
		<circle class="st0" cx="317.2" cy="243.8" r="10"/>
		<circle class="st0" cx="230.5" cy="243.8" r="10"/>
		<path class="st0" d="M260.5,290.5h13.3c5.5,0,10-4.5,10-10c0-4.5-3-8.5-7.3-9.6l6.3-12.6c2.4-5,0.4-10.9-4.6-13.4
			c-4.9-2.4-10.8-0.4-13.3,4.4L251.6,276c-2.5,4.9-0.5,10.9,4.5,13.4C257.5,290.1,259,290.5,260.5,290.5z"/>
		<path class="st0" d="M260.5,150.5h26.7c5.5,0,10-4.5,10-10s-4.5-10-10-10h-26.7c-5.5,0-10,4.5-10,10S255,150.5,260.5,150.5z"/>
		<path class="st0" d="M501.8,388.2l-10.6-1.3l-2.3-5.5l6.6-8.4c3.1-4,2.8-9.7-0.8-13.2l-24-24c-3.6-3.6-9.2-3.9-13.2-0.8l-8.4,6.6
			l-5.5-2.3l-1.3-10.6c-0.6-5-4.9-8.8-9.9-8.8h-34c-5,0-9.3,3.8-9.9,8.8l-1.3,10.6l-5.5,2.3l-8.4-6.6c-4-3.1-9.7-2.8-13.2,0.8
			l-24,24c-3.6,3.6-3.9,9.2-0.8,13.2l6.6,8.4l-2.3,5.5l-10.6,1.3c-5,0.6-8.8,4.9-8.8,9.9v8.9l-45.9,40.2l-58.1-50.8l21-6.3
			c4.2-1.3,7.1-5.2,7.1-9.6v-23.7c10.4,4.5,20.9,7,30,7c17.1,0,39.2-9,56.3-22.9c15.2-12.4,25.7-27.8,30.5-44.8
			c18.7-5.6,29.8-33.2,29.8-49c0-7-2.1-12.6-6.1-16.6c-4.3-4.3-9.8-5.9-15.8-6.4c5.5-6.6,8.5-14.9,8.5-23.5v-46.8
			c0-35-28.4-63.3-63.3-63.3h-80c-35,0-63.3,28.4-63.3,63.3v46.8c0,8.6,3,16.9,8.5,23.5c-6,0.6-11.5,2.1-15.8,6.4
			c-4,4-6.1,9.6-6.1,16.6c0,15.8,11.2,43.4,29.8,49c4.9,16.9,15.3,32.4,30.5,44.8c2,1.7,4.1,3.2,6.3,4.8v27.4l-107.2,32.2
			c-15.6,4.6-26.2,18.9-26.1,35.1v60.2c0,5.5,4.5,10,10,10s10-4.5,10-10v-60.2c0-7.3,4.8-13.8,11.9-16l70.7-21.2l74.1,64.9
			c3.8,3.3,9.4,3.3,13.2,0l39.5-34.5c0.6,4.5,4.2,8,8.7,8.5l10.6,1.3l2.3,5.5l-6.6,8.4c-3.1,4-2.8,9.7,0.8,13.2l24,24
			c3.6,3.6,9.2,3.9,13.2,0.8l8.4-6.6l5.5,2.3l1.3,10.6c0.6,5,4.9,8.8,9.9,8.8h34c5,0,9.3-3.8,9.9-8.8l1.3-10.6l5.5-2.3l8.4,6.6
			c4,3.1,9.7,2.8,13.2-0.8l24-24c3.6-3.6,3.9-9.2,0.8-13.2l-6.6-8.4l2.3-5.5l10.6-1.3c5-0.6,8.8-4.9,8.8-9.9v-34
			C510.5,393.1,506.8,388.9,501.8,388.2z M196.6,213.4c-3.6-3-5.8-7.3-6-12c54.6-14.5,112-14.5,166.6,0c-0.5,9.2-8.3,16.3-17.5,15.8
			c-0.8,0-1.5-0.1-2.3-0.3c-22.5-4.3-43-6.4-63.5-6.4s-40.9,2.1-63.5,6.4C205.5,217.9,200.4,216.6,196.6,213.4z M370.5,247.2
			c0,6.3-2.9,14.5-6.7,20.8v-24.1c2.8,0.1,5.3,0.3,6.4,0.9C370.5,245.5,370.6,246.3,370.5,247.2z M233.9,110.5h80
			c23.9,0,43.3,19.4,43.3,43.3v27c-54.7-13.7-112-13.7-166.7,0v-27C190.6,129.9,210,110.5,233.9,110.5z M177.5,244.7
			c1.1-0.5,3.6-0.8,6.4-0.9v24.1c-3.7-6.2-6.7-14.4-6.7-20.8C177.2,246.3,177.3,245.5,177.5,244.7z M203.9,273.8v-36.7
			c7.9,0.8,16-1.9,23.7-2.8c-5.3,1.6-8.3,7.2-6.6,12.5c1.6,5.3,7.2,8.3,12.5,6.6c5.3-1.6,8.3-7.2,6.6-12.5c-1.3-4.2-5.2-7.1-9.6-7.1
			c0,0,0,0,0,0c28.8-4.4,58-4.4,86.8,0c0,0,0,0,0,0c-5.5,0-10,4.5-10,10s4.5,10,10,10s10-4.5,10-10c0-4.4-2.9-8.3-7.1-9.6
			c7.7,0.9,15.8,3.6,23.7,2.8v36.7c0,46.2-49.1,70-70,70C242.2,341.6,203.6,313.2,203.9,273.8z M490.5,423.3l-7.6,0.9
			c-3.6,0.4-6.6,2.8-8,6.1l-6.8,16.3c-1.4,3.3-0.9,7.1,1.4,10l4.7,6.1l-11.5,11.5l-6.1-4.7c-2.8-2.2-6.6-2.7-10-1.4l-16.3,6.8
			c-3.3,1.4-5.7,4.4-6.1,8l-0.9,7.6H407l-0.9-7.6c-0.4-3.6-2.8-6.6-6.1-8l-16.3-6.8c-3.3-1.4-7.1-0.9-10,1.4l-6.1,4.7l-11.5-11.5
			l4.7-6.1c2.2-2.8,2.7-6.6,1.4-10l-6.8-16.3c-1.4-3.3-4.4-5.7-8-6.1l-7.6-0.9V407l7.6-0.9c3.6-0.4,6.6-2.8,8-6.1l6.8-16.3
			c1.4-3.3,0.9-7.1-1.4-10l-4.7-6.1l11.5-11.5l6.1,4.7c2.8,2.2,6.6,2.7,10,1.4l16.3-6.8c3.3-1.4,5.7-4.4,6.1-8l0.9-7.6h16.3l0.9,7.6
			c0.4,3.6,2.8,6.6,6.1,8l16.3,6.8c3.3,1.4,7.1,0.9,10-1.4l6.1-4.7l11.5,11.5l-4.7,6.1c-2.2,2.8-2.7,6.6-1.4,10l6.8,16.3
			c1.4,3.3,4.4,5.7,8,6.1l7.6,0.9V423.3z"/>
		<path class="st0" d="M415.2,374.4c-22.5,0-40.8,18.3-40.8,40.8c0,22.5,18.3,40.8,40.8,40.8c22.5,0,40.8-18.3,40.8-40.8
			c0-10.8-4.3-21.2-11.9-28.8C436.4,378.6,426,374.3,415.2,374.4z M429.9,429.8c-8.1,8.1-21.3,8.1-29.4,0c-8.1-8.1-8.1-21.3,0-29.4
			c8.1-8.1,21.3-8.1,29.4,0c0,0,0,0,0,0C438,408.6,438,421.7,429.9,429.8z"/>
	</g>
</g>
</svg>
