<?xml version="1.0" encoding="utf-8"?>
<!-- Generator: Adobe Illustrator 24.2.3, SVG Export Plug-In . SVG Version: 6.00 Build 0)  -->
<svg version="1.1" id="Capa_1" xmlns="http://www.w3.org/2000/svg" xmlns:xlink="http://www.w3.org/1999/xlink" x="0px" y="0px"
	 viewBox="0 0 600 600" style="enable-background:new 0 0 600 600;" xml:space="preserve">
<style type="text/css">
	.st0{clip-path:url(#SVGID_2_);}
	.st1{clip-path:url(#SVGID_4_);}
	.st2{clip-path:url(#SVGID_6_);}
	.st3{clip-path:url(#SVGID_8_);}
</style>
<g>
	<g>
		<g>
			<g>
				<defs>
					<rect id="SVGID_1_" x="93.3" y="277.9" width="104.7" height="211"/>
				</defs>
				<clipPath id="SVGID_2_">
					<use xlink:href="#SVGID_1_"  style="overflow:visible;"/>
				</clipPath>
				<path class="st0" d="M139.9,487.2c0.9,1.1,2.3,1.7,3.8,1.7c6.1,0,21-14.4,31-30.7c5.3,8.2,9.8,16.9,13.6,25.9
					c0.8,1.8,2.6,3,4.6,3c0.4,0,0.8-0.1,1.3-0.2c2.4-0.6,4-2.8,3.9-5.2c-0.9-18.3-5.7-36.2-14-52.6c0-0.1-0.1-0.1-0.2-0.2
					c-0.1-0.2-0.2-0.3-0.4-0.4c-0.1-0.1-0.3-0.3-0.4-0.4c-0.1-0.1-0.3-0.2-0.5-0.3c-0.2-0.1-0.4-0.2-0.6-0.2c-0.1,0-0.2-0.1-0.2-0.1
					l-6.7-1.7c-6.2-1.6-12.8,0.4-17.2,5.1c-5,5.6-9.1,11.9-12.2,18.8v-56.3c5.8-2.5,13.2-11.7,14.8-13.8c1.2-1.5,2.5-3.4,3.9-5.6
					c3.1,5.2,5.8,10.5,8.2,16c0.9,2.1,3.1,3.2,5.3,2.6c2.2-0.5,3.6-2.6,3.5-4.8c-0.6-12.7-3.9-25.1-9.7-36.4c0-0.1-0.1-0.1-0.2-0.2
					c-0.2-0.3-0.5-0.6-0.8-0.8c-0.1-0.1-0.3-0.2-0.5-0.3c-0.2-0.1-0.4-0.2-0.6-0.2c-0.1,0-0.2-0.1-0.2-0.1l-4.6-1.1
					c-4.7-1.2-9.6,0.3-12.8,3.8c-2.5,2.7-4.6,5.7-6.4,8.9v-13.1c0-8.1,12.3-17.6,28.1-17.6c1.9,0,3.5-1.6,3.5-3.5
					c0-1.9-1.6-3.5-3.5-3.5c-10.3-0.2-20.3,3.5-28.1,10.2c0.4-6.5,13.9-22.7,23.6-32.4c0.9-0.9,1.3-2.2,1-3.4
					c-0.3-1.2-1.3-2.2-2.5-2.5c-1.2-0.3-2.5,0-3.4,1c-6.8,6.7-13,14-18.6,21.8v-36.9c0-1.9-1.6-3.5-3.5-3.5c-1.9,0-3.5,1.6-3.5,3.5
					v36.9c-5.6-7.7-11.8-15-18.6-21.8c-1.4-1.3-3.6-1.3-4.9,0c-1.4,1.4-1.4,3.6,0,4.9c9.7,9.7,23.2,25.9,23.6,32.4
					c-7.8-6.8-17.8-10.4-28.1-10.2c-1.9,0-3.5,1.6-3.5,3.5c0,1.9,1.6,3.5,3.5,3.5c15.8,0,28.1,9.5,28.1,17.6v58.3
					c-2.6-5.3-5.9-10.2-9.8-14.6c-3.9-4.2-9.8-6-15.4-4.6l-5.8,1.4c-0.1,0-0.2,0.1-0.2,0.1c-0.2,0.1-0.4,0.1-0.5,0.2
					c-0.2,0.1-0.3,0.2-0.5,0.3c-0.1,0.1-0.3,0.2-0.4,0.4c-0.1,0.1-0.3,0.3-0.4,0.5c0,0.1-0.1,0.1-0.2,0.2
					c-7.2,14.3-11.4,29.9-12.2,45.9c-0.2,2.4,1.4,4.5,3.7,5c0.4,0.1,0.8,0.1,1.2,0.1c1.9,0,3.6-1.1,4.4-2.9
					c3.2-7.5,6.9-14.8,11.3-21.7c7.7,12.4,18.6,23.2,24.8,25.6v39.2c0,0.1,0,0.1,0,0.2c0,0.5,0,1,0,1.5
					C138.6,484.9,139,486.1,139.9,487.2L139.9,487.2z M168.3,367.2c0.2-0.4,0.4-0.8,0.5-1.2c0.2-0.5,0.5-1.1,0.7-1.6
					c1,2.9,1.8,5.8,2.5,8.7C170.9,371,169.7,369.1,168.3,367.2L168.3,367.2z M157.3,357.2c1.1-1.2,2.7-1.9,4.4-1.9
					c0.5,0,1,0.1,1.5,0.2l1.6,0.4c-0.7,3.5-2,6.9-3.8,10c-4,7.1-9.1,13.5-15.2,19C146.5,374.6,150.5,364.9,157.3,357.2L157.3,357.2z
					 M101.9,423.9c1.2-6.9,3-13.6,5.4-20.1c0.1,0.1,0.1,0.3,0.2,0.4c0.2,0.6,0.4,1.1,0.7,1.7c0.2,0.6,0.5,1.1,0.7,1.7
					c0.4,0.9,0.8,1.8,1.2,2.6C107,414.5,104.2,419.1,101.9,423.9L101.9,423.9z M117.4,409c0,0,0-0.1,0-0.1c-2.3-4-3.9-8.3-4.9-12.8
					c0-0.1-0.1-0.3-0.1-0.4c0-0.3,0-0.5-0.1-0.8l2.9-0.7c3.1-0.8,6.3,0.1,8.4,2.5c9.3,10.6,14.6,24,14.9,38.1
					C130,427.6,122.8,418.8,117.4,409L117.4,409z M145.7,483.6h-0.5v0L145.7,483.6L145.7,483.6z M178.5,451.5c1.5-2.9,2.8-5.9,3.8-9
					c3.5,9,5.9,18.4,7.4,28C186.5,463.8,182.8,457.5,178.5,451.5L178.5,451.5z M163.1,435.6c2-2.1,4.7-3.3,7.6-3.3
					c0.9,0,1.8,0.1,2.6,0.3l3.8,1c0,0.2-0.1,0.5-0.1,0.7c-0.1,0.5-0.2,1.1-0.3,1.6c-1.1,5-3,9.7-5.5,14.2
					c-7.4,13.7-19.7,26.9-25.5,30.7C146,464.1,152.1,448.1,163.1,435.6L163.1,435.6z M163.1,435.6"/>
			</g>
		</g>
		<g>
			<g>
				<defs>
					<rect id="SVGID_3_" x="299.1" y="277.9" width="104.7" height="211"/>
				</defs>
				<clipPath id="SVGID_4_">
					<use xlink:href="#SVGID_3_"  style="overflow:visible;"/>
				</clipPath>
				<path class="st1" d="M345.7,487.2c0.9,1.1,2.3,1.7,3.8,1.7c6.1,0,21-14.4,31-30.7c5.3,8.2,9.8,16.9,13.6,25.9
					c0.8,1.8,2.6,3,4.6,3c0.4,0,0.8-0.1,1.3-0.2c2.4-0.6,4-2.8,3.9-5.2c-0.9-18.3-5.7-36.2-14-52.6c0-0.1-0.1-0.1-0.2-0.2
					c-0.1-0.2-0.2-0.3-0.4-0.4c-0.1-0.1-0.3-0.3-0.4-0.4c-0.1-0.1-0.3-0.2-0.5-0.3c-0.2-0.1-0.4-0.2-0.6-0.2c-0.1,0-0.2-0.1-0.2-0.1
					l-6.7-1.7c-6.2-1.6-12.8,0.4-17.2,5.1c-5,5.6-9.1,11.9-12.2,18.8v-56.3c5.8-2.5,13.2-11.7,14.8-13.8c1.2-1.5,2.5-3.4,3.9-5.6
					c3.1,5.2,5.8,10.5,8.2,16c0.9,2.1,3.1,3.2,5.3,2.6c2.2-0.5,3.6-2.6,3.5-4.8c-0.6-12.7-3.9-25.1-9.7-36.4c0-0.1-0.1-0.1-0.2-0.2
					c-0.2-0.3-0.5-0.6-0.8-0.8c-0.1-0.1-0.3-0.2-0.5-0.3c-0.2-0.1-0.4-0.2-0.6-0.2c-0.1,0-0.2-0.1-0.2-0.1l-4.6-1.1
					c-4.7-1.2-9.6,0.3-12.8,3.8c-2.5,2.7-4.6,5.7-6.4,8.9v-13.1c0-8.1,12.3-17.6,28.1-17.6c1.9,0,3.5-1.6,3.5-3.5
					c0-1.9-1.6-3.5-3.5-3.5c-10.3-0.2-20.3,3.5-28.1,10.2c0.4-6.5,13.9-22.7,23.6-32.4c0.9-0.9,1.3-2.2,1-3.4
					c-0.3-1.2-1.3-2.2-2.5-2.5c-1.2-0.3-2.5,0-3.4,1c-6.8,6.7-13,14-18.6,21.8v-36.9c0-1.9-1.6-3.5-3.5-3.5c-1.9,0-3.5,1.6-3.5,3.5
					v36.9c-5.6-7.7-11.8-15-18.6-21.8c-1.4-1.3-3.6-1.3-4.9,0c-1.4,1.4-1.4,3.6,0,4.9c9.7,9.7,23.2,25.9,23.6,32.4
					c-7.8-6.8-17.8-10.4-28.1-10.2c-1.9,0-3.5,1.6-3.5,3.5c0,1.9,1.6,3.5,3.5,3.5c15.8,0,28.1,9.5,28.1,17.6v58.3
					c-2.6-5.3-5.9-10.2-9.8-14.6c-3.9-4.2-9.8-6-15.4-4.6l-5.8,1.4c-0.1,0-0.2,0.1-0.2,0.1c-0.2,0.1-0.4,0.1-0.5,0.2
					c-0.2,0.1-0.3,0.2-0.5,0.3c-0.1,0.1-0.3,0.2-0.4,0.4c-0.1,0.1-0.3,0.3-0.4,0.5c0,0.1-0.1,0.1-0.2,0.2
					c-7.2,14.3-11.4,29.9-12.2,45.9c-0.2,2.4,1.4,4.5,3.7,5c0.4,0.1,0.8,0.1,1.2,0.1c1.9,0,3.6-1.1,4.4-2.9
					c3.2-7.5,6.9-14.8,11.3-21.7c7.7,12.4,18.6,23.2,24.8,25.6v39.2c0,0.1,0,0.1,0,0.2c0,0.5,0,1,0,1.5
					C344.5,484.9,344.9,486.1,345.7,487.2L345.7,487.2z M374.1,367.2c0.2-0.4,0.4-0.8,0.5-1.2c0.2-0.5,0.5-1.1,0.7-1.6
					c1,2.9,1.8,5.8,2.5,8.7C376.8,371,375.5,369.1,374.1,367.2L374.1,367.2z M363.2,357.2c1.1-1.2,2.7-1.9,4.4-1.9
					c0.5,0,1,0.1,1.5,0.2l1.6,0.4c-0.7,3.5-2,6.9-3.8,10c-4,7.1-9.1,13.5-15.2,19C352.3,374.6,356.4,364.9,363.2,357.2L363.2,357.2z
					 M307.7,423.9c1.2-6.9,3-13.6,5.4-20.1c0.1,0.1,0.1,0.3,0.2,0.4c0.2,0.6,0.4,1.1,0.7,1.7c0.2,0.6,0.5,1.1,0.7,1.7
					c0.4,0.9,0.8,1.8,1.2,2.6C312.8,414.5,310.1,419.1,307.7,423.9L307.7,423.9z M323.3,409c0,0,0-0.1,0-0.1
					c-2.3-4-3.9-8.3-4.9-12.8c0-0.1-0.1-0.3-0.1-0.4c0-0.3,0-0.5-0.1-0.8l2.9-0.7c3.1-0.8,6.3,0.1,8.4,2.5
					c9.3,10.6,14.6,24,14.9,38.1C335.9,427.6,328.7,418.8,323.3,409L323.3,409z M351.6,483.6H351v0L351.6,483.6L351.6,483.6z
					 M384.3,451.5c1.5-2.9,2.8-5.9,3.8-9c3.5,9,5.9,18.4,7.4,28C392.4,463.8,388.7,457.5,384.3,451.5L384.3,451.5z M369,435.6
					c2-2.1,4.7-3.3,7.6-3.3c0.9,0,1.8,0.1,2.6,0.3l3.8,1c0,0.2-0.1,0.5-0.1,0.7c-0.1,0.5-0.2,1.1-0.3,1.6c-1.1,5-3,9.7-5.5,14.2
					c-7.4,13.7-19.7,26.9-25.5,30.7C351.8,464.1,358,448.1,369,435.6L369,435.6z M369,435.6"/>
			</g>
		</g>
		<g>
			<g>
				<defs>
					<rect id="SVGID_5_" x="196.2" y="277.9" width="104.7" height="211"/>
				</defs>
				<clipPath id="SVGID_6_">
					<use xlink:href="#SVGID_5_"  style="overflow:visible;"/>
				</clipPath>
				<path class="st2" d="M242.8,487.2c0.9,1.1,2.3,1.7,3.8,1.7c6.1,0,21-14.4,31-30.7c5.3,8.2,9.8,16.9,13.6,25.9
					c0.8,1.8,2.6,3,4.6,3c0.4,0,0.8-0.1,1.3-0.2c2.4-0.6,4-2.8,3.9-5.2c-0.9-18.3-5.7-36.2-14-52.6c0-0.1-0.1-0.1-0.2-0.2
					c-0.1-0.2-0.2-0.3-0.4-0.4c-0.1-0.1-0.3-0.3-0.4-0.4c-0.1-0.1-0.3-0.2-0.5-0.3c-0.2-0.1-0.4-0.2-0.6-0.2c-0.1,0-0.2-0.1-0.2-0.1
					l-6.7-1.7c-6.2-1.6-12.8,0.4-17.2,5.1c-5,5.6-9.1,11.9-12.2,18.8v-56.3c5.8-2.5,13.2-11.7,14.8-13.8c1.2-1.5,2.5-3.4,3.9-5.6
					c3.1,5.2,5.8,10.5,8.2,16c0.9,2.1,3.1,3.2,5.3,2.6c2.2-0.5,3.6-2.6,3.5-4.8c-0.6-12.7-3.9-25.1-9.7-36.4c0-0.1-0.1-0.1-0.2-0.2
					c-0.2-0.3-0.5-0.6-0.8-0.8c-0.1-0.1-0.3-0.2-0.5-0.3c-0.2-0.1-0.4-0.2-0.6-0.2c-0.1,0-0.2-0.1-0.2-0.1l-4.6-1.1
					c-4.7-1.2-9.6,0.3-12.8,3.8c-2.5,2.7-4.6,5.7-6.4,8.9v-13.1c0-8.1,12.3-17.6,28.1-17.6c1.9,0,3.5-1.6,3.5-3.5
					c0-1.9-1.6-3.5-3.5-3.5c-10.3-0.2-20.3,3.5-28.1,10.2c0.4-6.5,13.9-22.7,23.6-32.4c0.9-0.9,1.3-2.2,1-3.4
					c-0.3-1.2-1.3-2.2-2.5-2.5c-1.2-0.3-2.5,0-3.4,1c-6.8,6.7-13,14-18.6,21.8v-36.9c0-1.9-1.6-3.5-3.5-3.5c-1.9,0-3.5,1.6-3.5,3.5
					v36.9c-5.6-7.7-11.8-15-18.6-21.8c-1.4-1.3-3.6-1.3-4.9,0c-1.4,1.4-1.4,3.6,0,4.9c9.7,9.7,23.2,25.9,23.6,32.4
					c-7.8-6.8-17.8-10.4-28.1-10.2c-1.9,0-3.5,1.6-3.5,3.5c0,1.9,1.6,3.5,3.5,3.5c15.8,0,28.1,9.5,28.1,17.6v58.3
					c-2.6-5.3-5.9-10.2-9.8-14.6c-3.9-4.2-9.8-6-15.4-4.6l-5.8,1.4c-0.1,0-0.2,0.1-0.2,0.1c-0.2,0.1-0.4,0.1-0.5,0.2
					c-0.2,0.1-0.3,0.2-0.5,0.3c-0.1,0.1-0.3,0.2-0.4,0.4c-0.1,0.1-0.3,0.3-0.4,0.5c0,0.1-0.1,0.1-0.2,0.2
					c-7.2,14.3-11.4,29.9-12.2,45.9c-0.2,2.4,1.4,4.5,3.7,5c0.4,0.1,0.8,0.1,1.2,0.1c1.9,0,3.6-1.1,4.4-2.9
					c3.2-7.5,6.9-14.8,11.3-21.7c7.7,12.4,18.6,23.2,24.8,25.6v39.2c0,0.1,0,0.1,0,0.2c0,0.5,0,1,0,1.5
					C241.5,484.9,242,486.1,242.8,487.2L242.8,487.2z M271.2,367.2c0.2-0.4,0.4-0.8,0.5-1.2c0.2-0.5,0.5-1.1,0.7-1.6
					c1,2.9,1.8,5.8,2.5,8.7C273.9,371,272.6,369.1,271.2,367.2L271.2,367.2z M260.2,357.2c1.1-1.2,2.7-1.9,4.4-1.9
					c0.5,0,1,0.1,1.5,0.2l1.6,0.4c-0.7,3.5-2,6.9-3.8,10c-4,7.1-9.1,13.5-15.2,19C249.4,374.6,253.4,364.9,260.2,357.2L260.2,357.2z
					 M204.8,423.9c1.2-6.9,3-13.6,5.4-20.1c0.1,0.1,0.1,0.3,0.2,0.4c0.2,0.6,0.4,1.1,0.7,1.7c0.2,0.6,0.5,1.1,0.7,1.7
					c0.4,0.9,0.8,1.8,1.2,2.6C209.9,414.5,207.1,419.1,204.8,423.9L204.8,423.9z M220.4,409c0,0,0-0.1,0-0.1
					c-2.3-4-3.9-8.3-4.9-12.8c0-0.1-0.1-0.3-0.1-0.4c0-0.3,0-0.5-0.1-0.8l2.9-0.7c3.1-0.8,6.3,0.1,8.4,2.5
					c9.3,10.6,14.6,24,14.9,38.1C232.9,427.6,225.8,418.8,220.4,409L220.4,409z M248.6,483.6h-0.5v0L248.6,483.6L248.6,483.6z
					 M281.4,451.5c1.5-2.9,2.8-5.9,3.8-9c3.5,9,5.9,18.4,7.4,28C289.5,463.8,285.7,457.5,281.4,451.5L281.4,451.5z M266,435.6
					c2-2.1,4.7-3.3,7.6-3.3c0.9,0,1.8,0.1,2.6,0.3l3.8,1c0,0.2-0.1,0.5-0.1,0.7c-0.1,0.5-0.2,1.1-0.3,1.6c-1.1,5-3,9.7-5.5,14.2
					c-7.4,13.7-19.7,26.9-25.5,30.7C248.9,464.1,255,448.1,266,435.6L266,435.6z M266,435.6"/>
			</g>
		</g>
		<g>
			<g>
				<defs>
					<rect id="SVGID_7_" x="402.1" y="277.9" width="104.7" height="211"/>
				</defs>
				<clipPath id="SVGID_8_">
					<use xlink:href="#SVGID_7_"  style="overflow:visible;"/>
				</clipPath>
				<path class="st3" d="M448.6,487.2c0.9,1.1,2.3,1.7,3.8,1.7c6.1,0,21-14.4,31-30.7c5.3,8.2,9.8,16.9,13.6,25.9
					c0.8,1.8,2.6,3,4.6,3c0.4,0,0.8-0.1,1.3-0.2c2.4-0.6,4-2.8,3.9-5.2c-0.9-18.3-5.7-36.2-14-52.6c0-0.1-0.1-0.1-0.2-0.2
					c-0.1-0.2-0.2-0.3-0.4-0.4c-0.1-0.1-0.3-0.3-0.4-0.4c-0.1-0.1-0.3-0.2-0.5-0.3c-0.2-0.1-0.4-0.2-0.6-0.2c-0.1,0-0.2-0.1-0.2-0.1
					l-6.7-1.7c-6.2-1.6-12.8,0.4-17.2,5.1c-5,5.6-9.1,11.9-12.2,18.8v-56.3c5.8-2.5,13.2-11.7,14.8-13.8c1.2-1.5,2.5-3.4,3.9-5.6
					c3.1,5.2,5.8,10.5,8.2,16c0.9,2.1,3.1,3.2,5.3,2.6c2.2-0.5,3.6-2.6,3.5-4.8c-0.6-12.7-3.9-25.1-9.7-36.4c0-0.1-0.1-0.1-0.2-0.2
					c-0.2-0.3-0.5-0.6-0.8-0.8c-0.1-0.1-0.3-0.2-0.5-0.3c-0.2-0.1-0.4-0.2-0.6-0.2c-0.1,0-0.2-0.1-0.2-0.1l-4.6-1.1
					c-4.7-1.2-9.6,0.3-12.8,3.8c-2.5,2.7-4.6,5.7-6.4,8.9v-13.1c0-8.1,12.3-17.6,28.1-17.6c1.9,0,3.5-1.6,3.5-3.5
					c0-1.9-1.6-3.5-3.5-3.5c-10.3-0.2-20.3,3.5-28.1,10.2c0.4-6.5,13.9-22.7,23.6-32.4c0.9-0.9,1.3-2.2,1-3.4
					c-0.3-1.2-1.3-2.2-2.5-2.5c-1.2-0.3-2.5,0-3.4,1c-6.8,6.7-13,14-18.6,21.8v-36.9c0-1.9-1.6-3.5-3.5-3.5c-1.9,0-3.5,1.6-3.5,3.5
					v36.9c-5.6-7.7-11.8-15-18.6-21.8c-1.4-1.3-3.6-1.3-4.9,0c-1.4,1.4-1.4,3.6,0,4.9c9.7,9.7,23.2,25.9,23.6,32.4
					c-7.8-6.8-17.8-10.4-28.1-10.2c-1.9,0-3.5,1.6-3.5,3.5c0,1.9,1.6,3.5,3.5,3.5c15.8,0,28.1,9.5,28.1,17.6v58.3
					c-2.6-5.3-5.9-10.2-9.8-14.6c-3.9-4.2-9.8-6-15.4-4.6l-5.8,1.4c-0.1,0-0.2,0.1-0.2,0.1c-0.2,0.1-0.4,0.1-0.5,0.2
					c-0.2,0.1-0.3,0.2-0.5,0.3c-0.1,0.1-0.3,0.2-0.4,0.4c-0.1,0.1-0.3,0.3-0.4,0.5c0,0.1-0.1,0.1-0.2,0.2
					c-7.2,14.3-11.4,29.9-12.2,45.9c-0.2,2.4,1.4,4.5,3.7,5c0.4,0.1,0.8,0.1,1.2,0.1c1.9,0,3.6-1.1,4.4-2.9
					c3.2-7.5,6.9-14.8,11.3-21.7c7.7,12.4,18.6,23.2,24.8,25.6v39.2c0,0.1,0,0.1,0,0.2c0,0.5,0,1,0,1.5
					C447.4,484.9,447.8,486.1,448.6,487.2L448.6,487.2z M477.1,367.2c0.2-0.4,0.4-0.8,0.5-1.2c0.2-0.5,0.5-1.1,0.7-1.6
					c1,2.9,1.8,5.8,2.5,8.7C479.7,371,478.5,369.1,477.1,367.2L477.1,367.2z M466.1,357.2c1.1-1.2,2.7-1.9,4.4-1.9
					c0.5,0,1,0.1,1.5,0.2l1.6,0.4c-0.7,3.5-2,6.9-3.8,10c-4,7.1-9.1,13.5-15.2,19C455.3,374.6,459.3,364.9,466.1,357.2L466.1,357.2z
					 M410.7,423.9c1.2-6.9,3-13.6,5.4-20.1c0.1,0.1,0.1,0.3,0.2,0.4c0.2,0.6,0.4,1.1,0.7,1.7c0.2,0.6,0.5,1.1,0.7,1.7
					c0.4,0.9,0.8,1.8,1.2,2.6C415.8,414.5,413,419.1,410.7,423.9L410.7,423.9z M426.2,409c0,0,0-0.1,0-0.1c-2.3-4-3.9-8.3-4.9-12.8
					c0-0.1-0.1-0.3-0.1-0.4c0-0.3,0-0.5-0.1-0.8l2.9-0.7c3.1-0.8,6.3,0.1,8.4,2.5c9.3,10.6,14.6,24,14.9,38.1
					C438.8,427.6,431.6,418.8,426.2,409L426.2,409z M454.5,483.6H454v0L454.5,483.6L454.5,483.6z M487.3,451.5
					c1.5-2.9,2.8-5.9,3.8-9c3.5,9,5.9,18.4,7.4,28C495.3,463.8,491.6,457.5,487.3,451.5L487.3,451.5z M471.9,435.6
					c2-2.1,4.7-3.3,7.6-3.3c0.9,0,1.8,0.1,2.6,0.3l3.8,1c0,0.2-0.1,0.5-0.1,0.7c-0.1,0.5-0.2,1.1-0.3,1.6c-1.1,5-3,9.7-5.5,14.2
					c-7.4,13.7-19.7,26.9-25.5,30.7C454.7,464.1,460.9,448.1,471.9,435.6L471.9,435.6z M471.9,435.6"/>
			</g>
		</g>
	</g>
	<g>
		<g>
			<path d="M323.1,131.6c0-9.7-6.2-18.4-15.4-21.7V77.7h-15.4v32.2c-12,4.3-18.2,17.5-14,29.4c4.3,12,17.4,18.2,29.4,14
				C317,150,323.1,141.3,323.1,131.6L323.1,131.6z M300,139.3c-4.3,0-7.7-3.4-7.7-7.7c0-4.3,3.4-7.7,7.7-7.7c4.2,0,7.7,3.4,7.7,7.7
				C307.7,135.8,304.3,139.3,300,139.3L300,139.3z M300,139.3"/>
			<path d="M484.7,131.6c0-9.7-6.2-18.4-15.4-21.7V77.7h-15.4v32.2c-12,4.3-18.2,17.5-14,29.4c4.3,12,17.5,18.2,29.4,14
				C478.6,150,484.7,141.3,484.7,131.6L484.7,131.6z M461.6,139.3c-4.2,0-7.7-3.4-7.7-7.7c0-4.3,3.4-7.7,7.7-7.7
				c4.3,0,7.7,3.4,7.7,7.7C469.3,135.8,465.8,139.3,461.6,139.3L461.6,139.3z M461.6,139.3"/>
			<path d="M161.5,131.6c0-9.7-6.2-18.4-15.4-21.7V77.7h-15.4v32.2c-12,4.3-18.2,17.5-14,29.4c4.3,12,17.5,18.2,29.4,14
				C155.4,150,161.5,141.3,161.5,131.6L161.5,131.6z M138.4,139.3c-4.3,0-7.7-3.4-7.7-7.7c0-4.3,3.4-7.7,7.7-7.7
				c4.2,0,7.7,3.4,7.7,7.7C146.1,135.8,142.7,139.3,138.4,139.3L138.4,139.3z M138.4,139.3"/>
			<rect x="292.3" y="170" width="15.4" height="15.4"/>
			<rect x="292.3" y="200.8" width="15.4" height="15.4"/>
			<rect x="292.3" y="231.6" width="15.4" height="15.4"/>
			<path d="M316.2,165.8l13.8-6.9l7.7,15.4l-13.8,6.9L316.2,165.8z M316.2,165.8"/>
			<path d="M331.6,196.6l13.8-6.9l7.7,15.4l-13.8,6.9L331.6,196.6z M331.6,196.6"/>
			<path d="M347,227.3l13.8-6.9l7.7,15.4l-13.8,6.9L347,227.3z M347,227.3"/>
			<path d="M262.3,174.3l7.7-15.4l13.8,6.9l-7.7,15.4L262.3,174.3z M262.3,174.3"/>
			<path d="M247,205.1l7.7-15.4l13.8,6.9l-7.7,15.4L247,205.1z M247,205.1"/>
			<path d="M231.6,235.8l7.7-15.4l13.8,6.9l-7.7,15.4L231.6,235.8z M231.6,235.8"/>
			<rect x="130.7" y="170" width="15.4" height="15.4"/>
			<rect x="130.7" y="200.8" width="15.4" height="15.4"/>
			<rect x="130.7" y="231.6" width="15.4" height="15.4"/>
			<path d="M154.6,165.8l13.8-6.9l7.7,15.4l-13.8,6.9L154.6,165.8z M154.6,165.8"/>
			<path d="M170,196.6l13.8-6.9l7.7,15.4l-13.8,6.9L170,196.6z M170,196.6"/>
			<path d="M185.4,227.3l13.8-6.9l7.7,15.4l-13.8,6.9L185.4,227.3z M185.4,227.3"/>
			<path d="M100.8,174.3l7.7-15.4l13.8,6.9l-7.7,15.4L100.8,174.3z M100.8,174.3"/>
			<path d="M85.4,205.1l7.7-15.4l13.8,6.9l-7.7,15.4L85.4,205.1z M85.4,205.1"/>
			<path d="M70,235.8l7.7-15.4l13.8,6.9l-7.7,15.4L70,235.8z M70,235.8"/>
			<rect x="453.9" y="170" width="15.4" height="15.4"/>
			<rect x="453.9" y="200.8" width="15.4" height="15.4"/>
			<rect x="453.9" y="231.6" width="15.4" height="15.4"/>
			<path d="M477.8,165.8l13.8-6.9l7.7,15.4l-13.8,6.9L477.8,165.8z M477.8,165.8"/>
			<path d="M493.2,196.6l13.8-6.9l7.7,15.4l-13.8,6.9L493.2,196.6z M493.2,196.6"/>
			<path d="M508.5,227.3l13.8-6.9l7.7,15.4l-13.8,6.9L508.5,227.3z M508.5,227.3"/>
			<path d="M423.9,174.3l7.7-15.4l13.8,6.9l-7.7,15.4L423.9,174.3z M423.9,174.3"/>
			<path d="M408.5,205.1l7.7-15.4l13.8,6.9l-7.7,15.4L408.5,205.1z M408.5,205.1"/>
			<path d="M393.1,235.8l7.7-15.4l13.8,6.9l-7.7,15.4L393.1,235.8z M393.1,235.8"/>
		</g>
		<rect x="93.3" y="499.4" width="413.5" height="22.9"/>
	</g>
</g>
</svg>
