<?xml version="1.0" encoding="utf-8"?>
<!-- Generator: Adobe Illustrator 24.2.3, SVG Export Plug-In . SVG Version: 6.00 Build 0)  -->
<svg version="1.1" id="Capa_1" xmlns="http://www.w3.org/2000/svg" xmlns:xlink="http://www.w3.org/1999/xlink" x="0px" y="0px"
	 viewBox="0 0 809.1 708.7" style="enable-background:new 0 0 809.1 708.7;" xml:space="preserve">
<style type="text/css">
	.st0{fill:#840C23;}
	.st1{fill:#241F1F;}
	.st2{fill:none;stroke:#FFFFFF;stroke-width:6;stroke-miterlimit:10;}
	.st3{fill:#B21E2F;}
	.st4{fill:#FFFFFF;}
	.st5{fill-rule:evenodd;clip-rule:evenodd;fill:#FFFFFF;}
	.st6{fill-rule:evenodd;clip-rule:evenodd;fill:#921E30;}
	.st7{fill:#921E30;}
	.st8{fill-rule:evenodd;clip-rule:evenodd;fill:#ED3237;}
	.st9{clip-path:url(#SVGID_2_);fill-rule:evenodd;clip-rule:evenodd;fill:#FEFEFE;}
</style>
<g>
	<g>
		<polygon class="st0" points="726.2,641.9 599.5,318.7 599.5,176.9 809.1,478.4 		"/>
		<polygon class="st0" points="82.9,641.9 209.7,318.7 209.7,176.9 0,478.4 		"/>
		<path class="st1" d="M404.6,0C208.9,0,50.2,158.6,50.2,354.3s158.6,354.3,354.3,354.3S758.9,550,758.9,354.3S600.3,0,404.6,0z"/>
		<circle class="st2" cx="404.6" cy="354.3" r="323.6"/>
		<polygon class="st3" points="726.2,642.4 82.9,642.4 0,478.9 809.1,478.9 		"/>
	</g>
	<g>
		<g>
			<polygon class="st4" points="571.6,507.1 567.9,521.6 548.8,521.6 552.6,507.1 			"/>
			<polygon class="st4" points="535,575.5 548.2,524.2 567.2,524.2 554,575.5 			"/>
			<polygon class="st4" points="238.8,585 576.1,585 568.6,614.2 217.3,614.2 			"/>
			<path class="st5" d="M305.8,559.8c-0.9,1.9-2.4,4.4-4.7,6.9c-4.7,5-12.8,10.1-26.7,10.1c-16.9,0-23.5-6-26.8-11.9
				c-2.4-4.3-2.9-8.7-2.6-12.6c0.7-7.1,7.5-29.8,37.4-29.8c16.8,0,23.4,5.5,25.9,11.6c2,4.8,1.3,12.3,1.2,13h-19.7
				c0.6-3.8-0.5-10.1-7.3-10.1c-7.5,0-14.6,5.5-16.5,12.7c-2.2,8,2.3,13,9.4,13.1c7.7,0.2,11.4-6.1,11.5-6.2h20.1
				C307,557,306.3,558.9,305.8,559.8 M361.4,524.1h-23.4l-37.9,51.4h22.9l4-6.1h21.1l0.5,6.1h21.7L361.4,524.1z M347.7,558.9h-14.4
				l12.8-19.5L347.7,558.9z M371.9,557.5h20.3c0,0.1-0.2,7.5,10.6,7.5c7.4,0,8.5-2.3,8.7-3.4c0.4-1.9-0.9-2.9-3.7-3.6
				c-8.8-2.1-20.9-6-24.1-7.9c-2.2-1.3-5.5-4.3-5.6-10.2c0-7.9,9.3-17.6,29.4-17.5c10,0.1,16.2,2.1,19.9,3.7
				c8,3.6,8.6,11.2,8.5,14.4l-19.8,0c0,0-0.1-5.8-8.3-6.1c-4.2-0.2-8.8,0.6-8.7,3.8c0,2.8,2.8,3.4,9.5,4.9
				c1.6,0.3,12.3,2.5,15.7,3.8c6.2,2.3,9.2,5.5,8.2,12.3c-2.1,15.1-21.6,17.5-31.6,17.6c-12.5,0.1-25.7-2.3-28.5-14.7
				C372.1,560.6,371.9,557.5,371.9,557.5 M446.7,524.2l-13.2,51.4h53.9l3.5-13.5h-34.3l1.8-6.7h32.6l2.8-10.9h-32.7l1.8-6.7h34.1
				l3.5-13.5H446.7z"/>
			<polygon class="st4" points="536.7,558.2 541.1,541.2 538.5,541.2 542.9,524.1 523.8,524.1 510.5,575.5 529.6,575.5 534.1,558.2 
							"/>
			<polygon class="st4" points="568.3,541.2 565.6,541.2 561.1,558.2 563.9,558.2 559.5,575.5 578.5,575.5 591.8,524.1 572.7,524.1 
							"/>
			<path class="st6" d="M399.6,594.7l2.7,6.1h-5.3L399.6,594.7z M400.5,590.9h-1.7l-7.3,17h2.5l2.1-5h7.2l2.3,5h2.5L400.5,590.9z"/>
			<path class="st7" d="M424.8,599.6h-5.7v2.2h3.3v3.5c-1.2,0.4-2.4,0.7-3.7,0.7c-4,0-6.9-2.7-6.9-6.4c0-3.7,2.9-6.5,6.5-6.5
				c2,0,4.1,0.6,6.1,1.7v-2.5c-2.7-1.1-4.1-1.4-6-1.4c-5.2,0-9.1,3.8-9.1,8.8c0,5,3.8,8.6,9,8.6c2.4,0,4.2-0.4,6.5-1.4V599.6z"/>
			<path class="st6" d="M432.1,593.1h1.6c2.4,0,3.3,1,3.3,2.6c0,1.4-0.7,2.8-3.3,2.8h-1.6V593.1z M429.6,591V608h2.4v-7.4h1
				c1.2,0,2.3,0.4,4.5,3.9l2.2,3.5h2.9c-1.2-1.6-1.6-2.2-2.3-3.4c-1.3-2.1-2.2-3.7-3.8-4.7c1.8-0.7,2.8-2.2,2.8-4.2
				c0-2.9-2.1-4.7-5.6-4.7H429.6z"/>
			<rect x="445.8" y="591" class="st7" width="2.4" height="16.9"/>
			<path class="st7" d="M467.7,592.2c-2.3-1-4.1-1.4-5.8-1.4c-5.4,0-9.3,3.8-9.3,8.9c0,3.6,2.8,8.5,9.1,8.5c2.7,0,4.5-0.6,6.1-1.5
				V604c-1.9,1.2-4,1.9-5.9,1.9c-4.1,0-6.9-2.6-6.9-6.4c0-3.7,2.9-6.5,6.8-6.5c2,0,3.8,0.5,5.8,1.8V592.2z"/>
			<path class="st7" d="M486.3,591h-2.4v9.9c0,1.6-0.2,2.8-1.1,3.7c-0.8,0.8-2.1,1.4-4,1.4c-1.5,0-2.7-0.5-3.7-1.4
				c-0.8-0.8-1-1.6-1-3.5v-10h-2.4v10.5c0,4.6,3.5,6.6,7.1,6.6c5,0,7.5-2.7,7.5-6.9V591z"/>
			<polygon class="st7" points="493.3,591 490.9,591 490.9,608 501,608 501,605.8 493.3,605.8 			"/>
			<polygon class="st7" points="514.3,591 500.2,591 500.2,593.2 506,593.2 506,608 508.5,608 508.5,593.2 514.3,593.2 			"/>
			<path class="st7" d="M532.1,591h-2.4v9.9c0,1.6-0.2,2.8-1.1,3.7c-0.8,0.8-2.1,1.4-4,1.4c-1.5,0-2.7-0.5-3.7-1.4
				c-0.8-0.8-1-1.6-1-3.5v-10h-2.4v10.5c0,4.6,3.5,6.6,7.1,6.6c5,0,7.5-2.7,7.5-6.9V591z"/>
			<path class="st6" d="M539.2,593.1h1.6c2.4,0,3.3,1,3.3,2.6c0,1.4-0.7,2.8-3.3,2.8h-1.6V593.1z M536.7,591V608h2.4v-7.4h1
				c1.2,0,2.3,0.4,4.5,3.9l2.2,3.5h2.9c-1.2-1.6-1.6-2.2-2.3-3.4c-1.3-2.1-2.2-3.7-3.8-4.7c1.8-0.7,2.8-2.2,2.8-4.2
				c0-2.9-2.1-4.7-5.6-4.7H536.7z"/>
			<polygon class="st7" points="562.6,591 552.9,591 552.9,608 562.8,608 562.8,605.8 555.4,605.8 555.4,600.5 562.3,600.5 
				562.3,598.3 555.4,598.3 555.4,593.2 562.6,593.2 			"/>
		</g>
		<g>
			<path class="st4" d="M207.7,295.7c0,0.3-1,1.9-3,4.7c-2,2.8-6.1,4.5-12,5.1c2.7,0.7,4.9,1.5,6.7,2.4c1.8,0.9,3.2,1.9,4.2,3
				c1.1,1,1.9,2.1,2.4,3.2c0.5,1.1,0.9,2.1,1.2,3c0.4,1.9,0.7,7.1,0.7,15.6v27.8H182v-35.4l2.3-3.1l-2.1-1.6v-2.3
				c0.1-0.7-0.3-1.7-1.2-3.1c-0.9-1.3-3.3-2-7-2v47.5l-27-0.5v-46.5l1.1-2.7l-1-3.9l-0.3-12.7l1.6-3.2l-1.8-2.6v-33.3H166
				c12.9,0,21.7,0.5,26.3,1.5c4.6,1,8.3,3.6,11.1,7.7c2.9,4.1,4.2,10.4,4.1,18.9l0.1,6.5l-3,2.1l2.6,1l0.5,2.5V295.7z M183.8,279.8
				l-1.5-2.2v-1.1c0-0.1-0.6-0.7-1.8-1.8c-1.2-1-3.4-1.6-6.6-1.6v23.4c1.5,0,2.8,0,3.9-0.1c1.1-0.1,1.9-0.4,2.6-1
				c0.7-0.6,1.1-1.6,1.4-2.9c0.3-1.3,0.5-3.1,0.5-5.5v-5.8L183.8,279.8z M192.1,354.9l-3.6-1.4l-2.1,2.5l1.6,2l4.1,0.7V354.9z
				 M186.6,348.9l0.8,1.2l0.3,0.1l3.6-2.1l-3.1-2.6L186.6,348.9z M198.7,353.2l1.5-0.2l-2-0.8l-2.4,1.8l2.3,2.3l2-1.1L198.7,353.2z
				 M203.6,356.9l1.5-0.2l-2-0.8l-2.4,1.8l2.3,2.3l2-1.1L203.6,356.9z"/>
			<path class="st4" d="M218.6,255h35.5l3.9,1.6l3.3-1.6h2.9v21.2h-18.3v20h17.1v20.1h-17.1v22.7l10.1,0.3l2.3,3.1l2.6-3l1.6,1.2
				l3.5-1v21.1h-47.5v-79.2l-0.2-6.6l2-2.2l-1.8-2.6l0.1-1.6V255z M222.2,274.7l-0.4,2.5v2.9l4.1,0.4l1.3-2.3l-1.3-2.3L222.2,274.7z
				 M238,310.1l-0.3,1.4v1.6l3.3,0.2l1-1.2l-1-1.3L238,310.1z M242,318.1l-0.2,0.7l0.1,0.7l1.9,0.1l0.7-0.6l-0.7-0.6L242,318.1z
				 M249.2,345.8l-0.3,1.4v1.6l3.3,0.2l1-1.2l-1-1.3L249.2,345.8z M250.2,356l-0.3,1.4v1.6l3.3,0.2l1-1.2l-1-1.3L250.2,356z
				 M256.2,347.9l-0.5,2l-0.3,1.5l5.1,1.5l1.4-2.1l-1.5-1.9L256.2,347.9z M259.4,354.9l-0.3,1.4v1.6l3.3,0.2l1-1.2l-1-1.3
				L259.4,354.9z"/>
			<path class="st4" d="M273.8,255.1h27.6c7.4,0,13.2,0.6,17.2,1.8c4,1.2,7.1,2.9,9.1,5.1c1,1.1,1.8,2.3,2.5,3.6
				c0.7,1.3,1.2,2.8,1.6,4.5c0.4,1.7,0.7,3.8,0.8,6.1c0.2,2.4,0.3,5.2,0.3,8.4l-0.2,9v5.1l-2.3,1.9l2.5,2v0.7c0.1,0.4-0.6,2.2-2,5.3
				c-1.4,3.1-4,5.5-7.7,7.1c-3.7,1.6-8.5,2.4-14.5,2.4h-7.4v42.5l-27.4-0.5v-52.4l0.5-26.2l-0.4-9.8l2.5-1.2l-2.6-2.1V255.1z
				 M276.7,356.4l3.6-2.6l-2.1-8.3l1.6-6.3l-1.6-6.8l1.6-7.8v-7.8l-1.6-5.7l2.1-12c-1.7-3.5-3-5.2-3.6-5.2V356.4z M301.2,300
				c0.7,0.1,1.4,0.1,2,0.1c2.5,0,4.2-0.6,5.2-1.8c1-1.2,1.4-4,1.3-8.3v-4l1.6-1.7l-1.4-1.4l0.1-1c0-3.6-0.6-5.9-1.7-7
				c-1.2-1.1-3.5-1.6-7-1.6V300z M326.5,300.1l-2.4,1.8l2.3,2.3l2-1.1l-1.5-2l1.5-0.2L326.5,300.1z"/>
			<path class="st4" d="M403.1,255.1v76.4l-4.2,3.5h3.6l0.6,1.8v0.4c0,0.3-0.3,2-0.8,5.2c-0.5,3.3-2.1,6.6-4.6,10
				c-2.6,3.4-5.9,6-10.1,7.7c-4.3,1.8-9.2,2.7-14.8,2.7c-6.3,0-11.9-1-16.7-3.1c-4.8-2.1-8.4-4.8-10.8-8.2
				c-2.4-3.3-3.8-6.9-4.2-10.6c-0.4-3.7-0.7-11.5-0.7-23.4v-15.6l2.7-3.4l-3.1-1l0.4-3.4v-39h27.4v79.1c0,4.6,0.3,7.6,0.8,8.8
				c0.5,1.3,1.5,2,3,2c1.7,0,2.9-0.7,3.4-2.1c0.5-1.3,0.7-4.7,0.7-10v-77.7H403.1z M392.6,257.9l1,7.3l1.6,3.6l2.1-5.7l-0.5-4.2
				L392.6,257.9z"/>
			<path class="st4" d="M413.9,255h35.5l3.9,1.6l3.3-1.6h2.9v21.2h-18.3v20h17.1v20.1h-17.1v22.7l10.1,0.3l2.3,3.1l2.6-3l1.6,1.2
				l3.5-1v21.1h-47.5v-79.2l-0.2-6.6l2-2.2l-1.8-2.6l0.1-1.6V255z M417.5,274.7l-0.4,2.5v2.9l4.1,0.4l1.3-2.3l-1.3-2.3L417.5,274.7z
				 M433.3,310.1l-0.3,1.4v1.6l3.3,0.2l1-1.2l-1-1.3L433.3,310.1z M437.3,318.1l-0.2,0.7l0.1,0.7l1.9,0.1l0.7-0.6l-0.7-0.6
				L437.3,318.1z M444.5,345.8l-0.3,1.4v1.6l3.3,0.2l1-1.2l-1-1.3L444.5,345.8z M445.5,356l-0.3,1.4v1.6l3.3,0.2l1-1.2l-1-1.3
				L445.5,356z M451.5,347.9l-0.5,2l-0.3,1.5l5.1,1.5l1.4-2.1l-1.5-1.9L451.5,347.9z M454.6,354.9l-0.3,1.4v1.6l3.3,0.2l1-1.2
				l-1-1.3L454.6,354.9z"/>
			<path class="st4" d="M526.7,286.8l-10.2-0.5l-8.1,0.5h-6.3L502,283l2-2l-2.2-0.9l-0.1-1c0-3.7-0.3-6-1-7c-0.7-1-1.8-1.5-3.3-1.5
				c-3.3,0-5,2.7-5,8.1c0,1.8,0.1,3.3,0.2,4.6c0.1,1.3,0.5,2.4,1.2,3.5s1.6,2.1,2.9,3.1c1.3,1,3.1,2.2,5.4,3.6l8.1,5.5l5.2,2.4v3.1
				l3.3-1.1c0.7,0.5,2.7,3,5.9,7.7c3.2,4.6,4.8,12.1,4.8,22.5c0,3.8-0.2,7-0.6,9.7c-0.4,2.7-1.1,5-2.1,7c-1,2-2.3,3.6-3.9,5
				c-1.7,1.4-3.7,2.7-6.2,3.8c-5,2.4-10.9,3.6-17.6,3.6c-7.3,0-13.6-1.4-18.8-4.2s-8.6-6.3-10.2-10.6c-1.6-4.3-2.4-10.4-2.4-18.3
				l0.1-6.9h18.9l1.1,2.1h2.6l1-2.1h1.6v12.8c0,4,0.4,6.5,1.1,7.6c0.7,1.1,2,1.7,3.8,1.7c3.6,0,5.4-2.8,5.4-8.5
				c0-3.1-0.2-5.5-0.5-7.3c-0.3-1.8-1.1-3.4-2.1-4.8c-1.1-1.4-2.6-2.8-4.6-4.2c-2-1.4-4.7-3.2-8.1-5.5c-3.4-2.2-6.2-4.1-8.4-5.6
				c-2.1-1.5-3.9-2.9-5.2-4.2c-1.3-1.3-2.4-2.6-3.2-3.9c-0.8-1.3-1.5-2.9-2.2-4.7c-1.5-3.6-2.2-8.2-2.2-13.8c0-4,0.2-7.5,0.7-10.3
				c0.5-2.8,1.3-5.3,2.3-7.3c1-2,2.4-3.8,4-5.1c1.6-1.4,3.6-2.6,6-3.7c4.6-2.1,10.2-3.1,16.7-3.1c7.1,0,13.2,1.2,18.2,3.5
				c5,2.3,8.3,5.2,10,8.7c1.6,3.5,2.4,9.5,2.4,17.8L526.7,286.8z M472.8,325.6l-3.6,2.7l3.6,3.5l3.1-1.7l-2.3-3l2.3-0.3L472.8,325.6
				z M479.8,324.3l-2.4,1.8l2.3,2.3l2-1.1l-1.8-2l1.8-0.2L479.8,324.3z M485.4,327.5l-2,1.6l1.9,1.4l1.7-0.3l-0.8-1.8l0.8-0.2
				L485.4,327.5z M507.2,281.3l-2.4,1.8l2.3,2.3l1.3-2.1l-0.8-1l1.5-0.2L507.2,281.3z M522,343.3l-2.4,1.8l2.3,2.3l2-1.1l-1.5-2
				l1.5-0.2L522,343.3z M522.6,348.6l-2.4,1.8l2.3,2.3l2-1.1l-1.5-2l1.5-0.2L522.6,348.6z M526.4,339.7l-1.8,1.2l1.8,1.6l1.6-0.8
				l-1.2-1.4l1.2-0.2L526.4,339.7z"/>
			<path class="st4" d="M593.3,255.1v21.1H577V350l-3.8,3.3h3.6l0.1,7.3h-27.4v-84.3h-16.2v-21.1h22.5l2.8,2.3l2.8-2.3h24.4l2.5,2.3
				l3.1-2.3H593.3z M552.9,355.8l3.6-2.6l-2.1-8.3l1.6-6.3l-1.6-6.8l1.6-7.8v-7.8l-1.6-5.7l2.1-12c-1.7-3.5-3-5.2-3.6-5.2V355.8z
				 M568.5,278.2l-2.1,4.7l3.1,3.6l2.1-4.2l-1.6-4.7L568.5,278.2z"/>
			<path class="st4" d="M662.6,316.8c0,10.6-0.2,18.1-0.7,22.5c-0.5,4.4-2.1,8.5-4.8,12.1c-2.6,3.6-6.2,6.4-10.6,8.4
				c-4.5,2-9.7,2.9-15.6,2.9c-5.6,0-10.7-0.9-15.2-2.8c-4.5-1.8-8.1-4.6-10.8-8.3c-2.7-3.7-4.4-7.7-4.9-12
				c-0.5-4.3-0.8-11.9-0.8-22.8v-18c0-1.4,0-2.8,0-4.1c0,0,0.1-0.1,0.4-0.2c0.3-0.1,0.5-0.1,0.7-0.2c0.2-0.1,0.3-0.1,0.2-0.2
				c-0.1-0.1-0.5-0.1-1.2-0.2c-0.3,0-0.4-0.2-0.3-0.7c0.2-0.5,0.3-0.8,0.3-1.1c0-0.1,0.8-0.3,2.5-0.4c1.6-0.2,3.5-0.3,5.5-0.4
				c2-0.1,3.8-0.3,5.5-0.5c1.7-0.2,2.6-0.3,2.6-0.5c0-0.1-0.8-0.3-2.5-0.4c-1.7-0.2-3.5-0.3-5.5-0.4c-2-0.1-3.8-0.3-5.5-0.5
				c-1.7-0.2-2.5-0.3-2.4-0.5c0-0.3,0.1-0.5,0.4-0.8c0.3-0.3,0.2-0.6-0.4-0.8c-0.3-0.1-0.3-0.4-0.2-0.7c0.1-0.3,0.2-0.6,0.3-0.9
				c0.1-3.8,0.3-6.7,0.5-8.9c0.5-4.4,2-8.4,4.7-12c2.6-3.6,6.2-6.4,10.6-8.4c4.5-2,9.7-2.9,15.6-2.9c5.6,0,10.7,0.9,15.2,2.8
				c4.5,1.9,8.1,4.6,10.9,8.3c2.7,3.7,4.4,7.7,4.9,12c0.5,4.3,0.8,11.9,0.8,22.8V316.8z M635.2,282.2c0-1.1,0-2.1-0.1-3
				c0-0.1,0.7-0.2,2.1-0.3c1.4-0.1,2.6-0.2,3.5-0.3c0.9-0.1,1.1-0.3,0.7-0.4c-0.5-0.1-2.6-0.3-6.3-0.4c0-0.1,0-0.4,0-0.9
				c-0.1-2-0.3-3.3-0.7-4.1c-0.6-1.4-1.7-2.1-3.4-2c-1.4,0-2.5,0.5-3.3,1.6c-0.8,1.1-1.2,4.4-1.2,9.8v16.1l-1.5,1l1.5,0.8v2.5
				l-0.9,1.5l0.9,3.7v6.2l-5.4,0.3l5.4,0.8v16.3c0,6.1,0.3,9.9,0.8,11.3c0.5,1.4,1.6,2.1,3.5,2.1c1.9,0,3.1-0.8,3.6-2.5
				c0.5-1.6,0.8-5.6,0.8-11.8V282.2z M644.8,277.7l-1.4,1l1.2,1.1l1.3,0.1l1-0.8v-0.9L644.8,277.7z M645.4,342.4l-0.5,6.8v2l3.6,0.2
				l1.4-3.1L645.4,342.4z M649.2,354.2l-1.4,1l1.2,1.1l1.3,0.1l1-0.8v-0.9L649.2,354.2z M649.9,336.4l-1.9,2.5v2l3.6,0.2l1.4-3.1
				L649.9,336.4z M651,275.7l-0.8,0.7l0.7,0.8l0.8,0.1l0.6-0.5v-0.7L651,275.7z"/>
		</g>
		<g>
			<path class="st4" d="M261.3,419.5v11.9h-22.7v-11.9H261.3z M247.1,424.8l0.6,0.9l2-0.2v-1.2l-0.2-1.1l-1.8,0.6L247.1,424.8z
				 M249,429.3l2,1.2l1.5-0.3l0.3-1.7l-0.9-2.1l-2,1.9L249,429.3z M254.5,429.2l1.3,1.2l3.9-0.2v-1.6l-0.3-1.4l-3.6,0.7L254.5,429.2
				z"/>
			<path class="st4" d="M323.2,425.1c0,7-0.2,11.9-0.5,14.7c-0.3,2.9-1.4,5.5-3.1,7.9c-1.7,2.4-4.1,4.2-7,5.5
				c-3,1.3-6.4,1.9-10.2,1.9c-3.7,0-7-0.6-10-1.8c-2.9-1.2-5.3-3-7.1-5.4c-1.8-2.4-2.9-5.1-3.2-7.9c-0.3-2.8-0.5-7.8-0.5-14.9v-11.8
				c0-0.9,0-1.8,0-2.7c0,0,0.1-0.1,0.3-0.1c0.2,0,0.3-0.1,0.4-0.1c0.1,0,0.2-0.1,0.1-0.1c-0.1,0-0.3-0.1-0.8-0.1
				c-0.2,0-0.3-0.1-0.2-0.4c0.1-0.3,0.2-0.5,0.2-0.7c0-0.1,0.5-0.2,1.6-0.3c1.1-0.1,2.3-0.2,3.6-0.3c1.3-0.1,2.5-0.2,3.6-0.3
				c1.1-0.1,1.7-0.2,1.7-0.3c0-0.1-0.6-0.2-1.7-0.3c-1.1-0.1-2.3-0.2-3.6-0.3c-1.3-0.1-2.5-0.2-3.6-0.3c-1.1-0.1-1.6-0.2-1.6-0.3
				c0-0.2,0.1-0.4,0.3-0.6c0.2-0.2,0.1-0.4-0.2-0.6c-0.2-0.1-0.2-0.2-0.1-0.4c0.1-0.2,0.1-0.4,0.2-0.6c0.1-2.5,0.2-4.4,0.3-5.8
				c0.3-2.9,1.3-5.5,3.1-7.9c1.7-2.4,4-4.2,7-5.5c3-1.3,6.4-1.9,10.2-1.9c3.7,0,7,0.6,9.9,1.8c3,1.2,5.3,3,7.1,5.4
				c1.8,2.4,2.9,5.1,3.2,7.9c0.3,2.8,0.5,7.8,0.5,14.9V425.1z M305.2,402.4c0-0.7,0-1.4,0-2c0-0.1,0.5-0.2,1.4-0.2
				c0.9-0.1,1.7-0.1,2.3-0.2c0.6-0.1,0.7-0.2,0.4-0.3c-0.3-0.1-1.7-0.2-4.2-0.3c0-0.1,0-0.3,0-0.6c-0.1-1.3-0.2-2.2-0.4-2.7
				c-0.4-0.9-1.1-1.4-2.2-1.3c-0.9,0-1.7,0.3-2.1,1.1c-0.5,0.7-0.8,2.9-0.8,6.4V413l-1,0.7l1,0.5v1.6l-0.6,1l0.6,2.4v4.1l-3.5,0.2
				l3.5,0.5v10.7c0,4,0.2,6.5,0.5,7.4c0.3,0.9,1.1,1.4,2.3,1.4c1.3,0,2-0.5,2.3-1.6c0.3-1.1,0.5-3.7,0.5-7.7V402.4z M311.5,399.5
				l-0.9,0.6l0.8,0.7l0.9,0.1l0.6-0.5v-0.6L311.5,399.5z M312,441.9l-0.3,4.4v1.3l2.4,0.1l0.9-2L312,441.9z M314.4,449.6l-0.9,0.6
				l0.8,0.7l0.9,0.1l0.6-0.5V450L314.4,449.6z M314.9,437.9l-1.2,1.7v1.3l2.4,0.1l0.9-2L314.9,437.9z M315.6,398.2l-0.6,0.5l0.5,0.5
				l0.6,0l0.4-0.3v-0.4L315.6,398.2z"/>
			<path class="st4" d="M369.7,384.7v69.1H354l-9.3-31.4v31.4l-15.4-0.3l0.1-4.4V447l14.1-1.1l-14,0.2l0.1-5.5v-55.9h15.1l10.1,31.1
				v-31.1H369.7z M332.6,386.3l-1.5,2l1.1,1.6l2.6-0.2l-0.1-1.3l0.3-1L332.6,386.3z M365.3,429.9l2.4-1.7l-1.4-5.5l1-4.1l-1-4.4
				l1-5.1v-5.1l-1-3.8l1.4-7.9c-1.1-2.3-1.9-3.4-2.4-3.4V429.9z"/>
			<path class="st4" d="M410.3,384.3v27.8c0.2,2.6,0.2,9.6,0,20.9v7h11l-0.2,13.8h-21.5l-2.9-1.4l-1,1.4h-3.8v-35l0.5-8.4l0.4-3.8
				l-0.5-4.8l0.4-8.9l-0.2-4.3l0.3-4.4l8.8,0.3h4.4l1.7,1.5l1.7-1.5L410.3,384.3z M395.8,388l-1.4,1.6l1.1,1.3l2.7,0.5V389
				L395.8,388z M395.1,448.6l-0.6,0.7l0.4,0.6l1.1,0.2l0-0.7l0-0.4L395.1,448.6z M402.3,450.2l-0.8,1.2l0.6,0.9l1.5,0.4v-1.8
				L402.3,450.2z M405.9,431.6l2.4-1.7l-1.4-5.5l1-4.1l-1-4.4l1-5.1v-5.1l-1-3.8l1.4-7.9c-1.1-2.3-1.9-3.4-2.4-3.4V431.6z
				 M413.5,443.7l-1.4,1.6l1.1,1.3l2.7,0.5v-2.4L413.5,443.7z M417.7,441.7l-0.2,0.9v1.1l2.2,0.1l0.7-0.8l-0.7-0.9L417.7,441.7z"/>
			<path class="st4" d="M443.6,384.7v69.1h-17.8v-34.6l-0.3-17.6l1.2-2.2l-1.2-1.2v-1.2l0.2-12.2H443.6z M428.7,386.7l-2.2,1.6
				l2.2,2.1l1.9-1l-1.4-1.8l1.4-0.2L428.7,386.7z M437.2,444.9l-1.5,1.9l1.5,1.9l1.9-1l-1.4-1.8l1.4-0.2L437.2,444.9z M440.5,449.8
				l-1.6,1.2l1.5,1.5l1.3-0.7l-1-1.3l1-0.1L440.5,449.8z"/>
			<path class="st4" d="M490.9,384.7v69.1h-15.7l-9.3-31.4v31.4l-15.4-0.3l0.1-4.4V447l14.1-1.1l-14,0.2l0.1-5.5v-55.9h15.1
				l10.1,31.1v-31.1H490.9z M453.7,386.3l-1.5,2l1.1,1.6l2.6-0.2l-0.1-1.3l0.3-1L453.7,386.3z M486.5,429.9l2.4-1.7l-1.4-5.5l1-4.1
				l-1-4.4l1-5.1v-5.1l-1-3.8l1.4-7.9c-1.1-2.3-1.9-3.4-2.4-3.4V429.9z"/>
			<path class="st4" d="M498.3,384.6h23.3l2.6,1l2.1-1h1.9v13.9h-12v13.1h11.2v13.1h-11.2v14.9l6.6,0.2l1.5,2l1.7-2l1,0.8l2.3-0.7
				v13.8h-31.2v-51.9l-0.1-4.4l1.3-1.5l-1.2-1.7l0.1-1.1V384.6z M500.6,397.5l-0.3,1.7v1.9l2.7,0.3l0.9-1.5l-0.9-1.5L500.6,397.5z
				 M511,420.7l-0.2,0.9v1.1l2.2,0.1l0.7-0.8l-0.7-0.9L511,420.7z M513.6,426l-0.1,0.4l0,0.5l1.2,0.1l0.4-0.4l-0.4-0.4L513.6,426z
				 M518.3,444.1l-0.2,0.9v1.1l2.2,0.1l0.7-0.8l-0.7-0.9L518.3,444.1z M519,450.8l-0.2,0.9v1.1l2.2,0.1l0.7-0.8l-0.7-0.9L519,450.8z
				 M522.9,445.5l-0.3,1.3l-0.2,1l3.3,1l0.9-1.4l-1-1.2L522.9,445.5z M525,450.1l-0.2,0.9v1.1l2.2,0.1l0.7-0.8l-0.7-0.9L525,450.1z"
				/>
			<path class="st4" d="M570.5,419.5v11.9h-22.7v-11.9H570.5z M556.2,424.8l0.6,0.9l2-0.2v-1.2l-0.2-1.1l-1.8,0.6L556.2,424.8z
				 M558.2,429.3l2,1.2l1.5-0.3l0.3-1.7l-0.9-2.1l-2,1.9L558.2,429.3z M563.6,429.2l1.3,1.2l3.9-0.2v-1.6l-0.3-1.4l-3.6,0.7
				L563.6,429.2z"/>
		</g>
		<g>
			<path class="st4" d="M288.5,220.5v-28.1h18.9v4.8H294v7.2h11.1v4.4H294v11.6H288.5z"/>
			<path class="st4" d="M335.9,215.7v4.8h-19.5v-28.1h19.1v4.8h-13.7v6.8h11.8v4.4h-11.8v7.3H335.9z"/>
			<path class="st4" d="M345.3,220.5v-28.1h12.4c1.3,0,2.5,0.3,3.6,0.8c1.1,0.5,2,1.3,2.8,2.1c0.8,0.9,1.4,1.9,1.9,3
				s0.7,2.2,0.7,3.4c0,1.8-0.5,3.5-1.4,5c-0.9,1.5-2.1,2.6-3.7,3.2l6.4,10.6h-6.1l-5.7-9.4h-5.4v9.4H345.3z M350.8,206.3h6.8
				c0.5,0,1-0.1,1.4-0.4c0.4-0.2,0.8-0.6,1.1-1c0.3-0.4,0.6-0.9,0.8-1.4c0.2-0.6,0.3-1.1,0.3-1.8c0-0.7-0.1-1.3-0.3-1.8
				s-0.5-1-0.8-1.4c-0.4-0.4-0.8-0.7-1.2-0.9c-0.5-0.2-0.9-0.3-1.4-0.3h-6.6V206.3z"/>
			<path class="st4" d="M376.8,220.5v-28.1h5.5v28.1H376.8z"/>
			<path class="st4" d="M401.3,192.4h4.8l10.7,28.1h-5.6l-2.6-7h-9.8l-2.6,7h-5.6L401.3,192.4z M407.5,209.7l-3.9-11l-4,11H407.5z"
				/>
			<path class="st4" d="M438.4,220.5v-28.1h10.2c2.3,0,4.3,0.4,6,1.1c1.7,0.7,3.2,1.7,4.3,3c1.2,1.3,2,2.7,2.6,4.4
				c0.6,1.7,0.9,3.5,0.9,5.4c0,2.1-0.3,4.1-1,5.8c-0.6,1.7-1.6,3.2-2.8,4.4c-1.2,1.2-2.7,2.2-4.4,2.8c-1.7,0.7-3.6,1-5.7,1H438.4z
				 M457,206.4c0-1.3-0.2-2.6-0.6-3.7c-0.4-1.1-0.9-2.1-1.6-2.9c-0.7-0.8-1.6-1.4-2.6-1.9c-1-0.4-2.2-0.7-3.5-0.7h-4.7v18.5h4.7
				c1.3,0,2.5-0.2,3.6-0.7c1-0.5,1.9-1.1,2.6-2c0.7-0.8,1.2-1.8,1.6-2.9C456.8,209,457,207.8,457,206.4z"/>
			<path class="st4" d="M491.4,215.7v4.8h-19.5v-28.1h19.1v4.8h-13.7v6.8h11.8v4.4h-11.8v7.3H491.4z"/>
			<path class="st4" d="M500.9,220.5v-28.1h5.5v23.3h14.3v4.8H500.9z"/>
		</g>
		<g>
			<path class="st5" d="M335.2,121.8c2.5,1.2,4.3,2.5,5.4,4c1.1,1.5,1.6,3.3,1.6,5.5c0,3.2-1,5.9-3.1,7.9s-4.7,3-8.1,3
				c-2.1,0-4-0.4-5.7-1.2c-1.8-0.8-3.4-2.1-4.9-3.8l3.7-4.9c1,1.2,2.1,2.1,3.2,2.7c1.1,0.6,2.3,0.9,3.5,0.9c1.3,0,2.3-0.4,3.1-1.1
				c0.8-0.8,1.2-1.8,1.2-3c0-0.9-0.2-1.6-0.7-2.2c-0.5-0.6-1.4-1.2-2.8-1.9l-3.6-1.9c-2.5-1.3-4.3-2.6-5.3-4.1
				c-1-1.4-1.5-3.2-1.5-5.4c0-3,1-5.4,3-7.3c2-2,4.5-2.9,7.6-2.9c2.1,0,4,0.4,5.7,1.2c1.6,0.8,3.1,2,4.2,3.6l-4.3,4.4
				c-0.9-1-1.7-1.8-2.6-2.2c-0.9-0.5-1.9-0.7-2.9-0.7c-1,0-1.9,0.3-2.5,1c-0.7,0.7-1,1.5-1,2.5c0,0.8,0.2,1.6,0.7,2.2
				c0.5,0.7,1.2,1.2,2.3,1.7L335.2,121.8z M346,141.6v-34.5h7.7v34.5H346z M375.5,141.6l-6.4-20.8l0-0.1c-0.7-2.4-1.2-4.4-1.5-5.7
				v0.6c0,0.7,0,1.4-0.1,2.3c-0.1,0.9-0.2,1.8-0.3,2.9l-2.3,20.9h-6.7l5.1-34.5h7.6l6.3,20.2c0.3,0.9,0.5,1.8,0.7,2.7
				c0.2,0.9,0.4,1.9,0.6,2.8c0.1-1,0.3-1.9,0.5-2.8c0.2-0.9,0.4-1.8,0.7-2.7l6.3-20.2h7.5l5.1,34.5h-6.7l-2.4-20.9
				c-0.1-1.1-0.2-2-0.3-2.8c-0.1-0.8-0.1-1.6-0.1-2.4v-0.6c-0.2,0.8-0.4,1.7-0.6,2.5c-0.2,0.9-0.6,2-1,3.3l-6.4,20.8H375.5z
				 M414.7,135.5c2.1,0,3.8-1,5-3c1.2-2,1.9-4.7,1.9-8.1c0-3.4-0.7-6.1-1.9-8.2c-1.3-2-3-3-5.1-3c-2.1,0-3.7,1-5,3
				c-1.2,2-1.9,4.7-1.9,8.1c0,3.4,0.6,6.2,1.9,8.2C410.9,134.5,412.6,135.5,414.7,135.5L414.7,135.5z M414.7,142.3
				c-2.2,0-4.2-0.4-6.1-1.2c-1.8-0.8-3.3-2-4.7-3.6c-1.4-1.8-2.5-3.7-3.2-5.9c-0.7-2.2-1.1-4.6-1.1-7.2c0-2.6,0.3-5.1,1.1-7.3
				c0.7-2.2,1.8-4.2,3.2-5.9c1.2-1.6,2.8-2.8,4.6-3.6c1.8-0.8,3.8-1.2,6.1-1.2c2.2,0,4.2,0.4,6,1.2c1.8,0.8,3.3,2,4.6,3.6
				c1.4,1.7,2.4,3.7,3.1,5.9c0.7,2.2,1.1,4.6,1.1,7.3c0,2.6-0.3,5.1-1,7.3c-0.7,2.2-1.7,4.1-3.1,5.8c-1.3,1.6-2.9,2.8-4.6,3.6
				C418.9,141.9,416.9,142.3,414.7,142.3L414.7,142.3z M452.5,141.6l-11.3-19c-0.3-0.6-0.7-1.3-1-2.1c-0.3-0.9-0.6-1.9-0.9-2.9
				c0.1,1.3,0.2,2.6,0.3,3.9c0.1,1.2,0.1,2.3,0.1,3.4v16.8H433v-34.5h6.7l10.8,18.3c0.6,1,1,1.9,1.4,2.9c0.4,1,0.7,1.9,0.9,3
				c-0.1-1.4-0.2-2.8-0.3-4c-0.1-1.2-0.1-2.3-0.1-3.2v-16.9h6.8v34.5H452.5z M471.6,135l-1.8,6.6H462l11.2-34.5h8.4l11.2,34.5h-7.7
				l-1.8-6.6H471.6z M472.7,129.5h8.9l-4.4-16.3L472.7,129.5z M507.1,121.8c2.5,1.2,4.3,2.5,5.4,4c1.1,1.5,1.6,3.3,1.6,5.5
				c0,3.2-1,5.9-3.1,7.9c-2.1,2-4.8,3-8.1,3c-2.1,0-4-0.4-5.7-1.2c-1.8-0.8-3.4-2.1-4.9-3.8l3.8-4.9c1,1.2,2.1,2.1,3.2,2.7
				c1.1,0.6,2.3,0.9,3.4,0.9c1.3,0,2.3-0.4,3.1-1.1c0.8-0.8,1.2-1.8,1.2-3c0-0.9-0.2-1.6-0.7-2.2c-0.5-0.6-1.4-1.2-2.8-1.9l-3.6-1.9
				c-2.5-1.3-4.3-2.6-5.3-4.1c-1-1.4-1.5-3.2-1.5-5.4c0-3,1-5.4,3-7.3c2-2,4.5-2.9,7.6-2.9c2.1,0,4,0.4,5.7,1.2
				c1.7,0.8,3.1,2,4.3,3.6l-4.3,4.4c-0.9-1-1.7-1.8-2.6-2.2c-0.9-0.5-1.9-0.7-2.9-0.7c-1,0-1.9,0.3-2.6,1c-0.7,0.7-1,1.5-1,2.5
				c0,0.8,0.2,1.6,0.7,2.2c0.5,0.7,1.3,1.2,2.3,1.7L507.1,121.8z M529.3,121.8c2.5,1.2,4.3,2.5,5.4,4c1.1,1.5,1.6,3.3,1.6,5.5
				c0,3.2-1,5.9-3.1,7.9s-4.7,3-8.1,3c-2.1,0-4-0.4-5.8-1.2c-1.7-0.8-3.4-2.1-4.9-3.8l3.8-4.9c1,1.2,2.1,2.1,3.2,2.7
				c1.1,0.6,2.3,0.9,3.4,0.9c1.3,0,2.3-0.4,3.1-1.1c0.8-0.8,1.2-1.8,1.2-3c0-0.9-0.2-1.6-0.7-2.2c-0.5-0.6-1.4-1.2-2.8-1.9l-3.6-1.9
				c-2.5-1.3-4.3-2.6-5.3-4.1c-1.1-1.4-1.6-3.2-1.6-5.4c0-3,1-5.4,3-7.3c2-2,4.5-2.9,7.6-2.9c2.1,0,4,0.4,5.7,1.2
				c1.7,0.8,3.1,2,4.3,3.6l-4.3,4.4c-0.9-1-1.8-1.8-2.6-2.2c-0.9-0.5-1.9-0.7-2.9-0.7c-1,0-1.9,0.3-2.5,1c-0.7,0.7-1,1.5-1,2.5
				c0,0.8,0.2,1.6,0.8,2.2c0.5,0.7,1.2,1.2,2.2,1.7L529.3,121.8z M540.1,141.6v-34.5h7.7v34.5H540.1z"/>
			<rect x="261.3" y="105.8" class="st8" width="49.8" height="37"/>
			<g>
				<defs>
					<rect id="SVGID_1_" x="261.3" y="105.8" width="49.8" height="37"/>
				</defs>
				<clipPath id="SVGID_2_">
					<use xlink:href="#SVGID_1_"  style="overflow:visible;"/>
				</clipPath>
				<path class="st9" d="M296.1,121.5c-4.9,5.1-8.8,10.7-11.7,16.8l-3.3-2.1c2.8-5.2,6.3-10.2,10.7-14.7c8.6-9,17.6-11.1,25-10.6
					C310.3,111.5,303,114.2,296.1,121.5L296.1,121.5z M287.9,121.9c-3.8,3.9-7,8.2-9.5,12.7l-3.1-1.9c2.3-3.5,4.9-6.9,8-10
					c7.1-7.5,14.6-10.2,21.1-10.6C299.1,113.2,293.4,116.1,287.9,121.9L287.9,121.9z M303.9,120.9c-6.1,6.3-10.5,13.4-13.7,21.1
					l-3.1-2c3-6.8,7.2-13.2,12.7-18.9c6-6.3,12.1-9.2,17.9-10.2v0.8C313.2,113.3,308.5,116.1,303.9,120.9L303.9,120.9z M263.1,125
					l-1.3-0.8c4-3.5,7.9-5.7,11.8-6.9C270.1,118.9,266.6,121.4,263.1,125L263.1,125z M270.9,124.3c-1.1,1.2-2.2,2.3-3.2,3.6
					l-2.4-1.5c0.5-0.5,1-1,1.4-1.5c7.3-7.6,14.8-10.3,21.5-10.6C282.6,115.3,276.6,118.2,270.9,124.3L270.9,124.3z M279.5,123
					c-2.5,2.5-4.7,5.3-6.7,8.1l-2.8-1.7c1.4-1.9,3-3.6,4.6-5.4c6.5-6.9,13.3-9.7,19.4-10.5C289.3,114.9,284.4,117.8,279.5,123
					L279.5,123z"/>
				<path class="st9" d="M381.3-57c-4.9,5.1-8.8,10.7-11.7,16.8l-3.3-2.1c2.8-5.2,6.3-10.2,10.7-14.7c8.6-9,17.6-11.1,25-10.6
					C395.5-67.1,388.3-64.4,381.3-57L381.3-57z M373.2-56.6c-3.8,3.9-7,8.2-9.5,12.7l-3.1-1.9c2.3-3.5,4.9-6.9,8-10
					c7.1-7.5,14.6-10.2,21.1-10.6C384.3-65.3,378.7-62.4,373.2-56.6L373.2-56.6z M389.2-57.6c-6.1,6.3-10.5,13.4-13.7,21.1l-3.1-2
					c3-6.8,7.2-13.2,12.7-18.9c6-6.3,12.1-9.2,17.9-10.2v0.8C398.4-65.3,393.8-62.4,389.2-57.6L389.2-57.6z M348.3-53.6l-1.3-0.8
					c4-3.5,7.9-5.7,11.8-6.9C355.4-59.6,351.8-57.2,348.3-53.6L348.3-53.6z M356.1-54.2c-1.1,1.2-2.2,2.3-3.2,3.6l-2.4-1.5
					c0.5-0.5,1-1,1.4-1.5c7.3-7.6,14.8-10.3,21.5-10.6C367.9-63.2,361.9-60.3,356.1-54.2L356.1-54.2z M364.7-55.6
					c-2.5,2.5-4.7,5.3-6.7,8.1l-2.8-1.7c1.4-1.9,3-3.6,4.6-5.4c6.5-6.9,13.3-9.7,19.4-10.5C374.6-63.6,369.6-60.7,364.7-55.6
					L364.7-55.6z"/>
			</g>
		</g>
	</g>
</g>
</svg>
