<?xml version="1.0" encoding="utf-8"?>
<!-- Generator: Adobe Illustrator 24.2.3, SVG Export Plug-In . SVG Version: 6.00 Build 0)  -->
<svg version="1.1" id="Capa_1" xmlns="http://www.w3.org/2000/svg" xmlns:xlink="http://www.w3.org/1999/xlink" x="0px" y="0px"
	 viewBox="0 0 127.8 36.6" style="enable-background:new 0 0 127.8 36.6;" xml:space="preserve">
<style type="text/css">
	.st0{fill:#B21E2F;}
	.st1{fill-rule:evenodd;clip-rule:evenodd;fill:#FFFFFF;}
	.st2{fill:#FFFFFF;}
</style>
<g>
	<polygon class="st0" points="120.9,0 119.7,4.9 113.2,4.9 114.4,0 	"/>
	<polygon class="st0" points="108.4,23.4 112.9,5.8 119.4,5.8 114.9,23.4 	"/>
	<polygon class="st0" points="7.3,26.6 122.5,26.6 119.9,36.6 0,36.6 	"/>
	<path class="st1" d="M30.2,18c-0.3,0.6-0.8,1.5-1.6,2.4c-1.6,1.7-4.4,3.4-9.1,3.4c-5.8,0-8-2-9.1-4.1c-0.8-1.5-1-3-0.9-4.3
		C9.7,13,12,5.3,22.3,5.3c5.7,0,8,1.9,8.8,3.9c0.7,1.6,0.4,4.2,0.4,4.4h-6.7c0.2-1.3-0.2-3.4-2.5-3.5c-2.5,0-5,1.9-5.6,4.3
		c-0.7,2.7,0.8,4.4,3.2,4.5c2.6,0.1,3.9-2.1,3.9-2.1h6.9C30.6,17.1,30.4,17.7,30.2,18 M49.2,5.8h-8L28.3,23.4h7.8l1.4-2.1h7.2
		l0.2,2.1h7.4L49.2,5.8z M44.5,17.7h-4.9L44,11L44.5,17.7z M52.8,17.2h6.9c0,0-0.1,2.6,3.6,2.6c2.5,0,2.9-0.8,3-1.2
		c0.1-0.7-0.3-1-1.3-1.2c-3-0.7-7.1-2.1-8.2-2.7c-0.8-0.5-1.9-1.5-1.9-3.5c0-2.7,3.2-6,10-6c3.4,0,5.5,0.7,6.8,1.3
		c2.7,1.2,3,3.8,2.9,4.9l-6.7,0c0,0,0-2-2.8-2.1c-1.4-0.1-3,0.2-3,1.3c0,1,1,1.2,3.2,1.7c0.5,0.1,4.2,0.9,5.4,1.3
		c2.1,0.8,3.1,1.9,2.8,4.2c-0.7,5.1-7.4,6-10.8,6c-4.3,0-8.8-0.8-9.7-5C52.8,18.3,52.8,17.2,52.8,17.2 M78.3,5.8l-4.5,17.5h18.4
		l1.2-4.6H81.7l0.6-2.3h11.1l1-3.7H83.2l0.6-2.3h11.6l1.2-4.6H78.3z"/>
	<polygon class="st2" points="109,17.4 110.5,11.6 109.6,11.6 111.1,5.8 104.6,5.8 100.1,23.4 106.6,23.4 108.1,17.4 	"/>
	<polygon class="st2" points="119.8,11.6 118.9,11.6 117.4,17.4 118.3,17.4 116.8,23.4 123.3,23.4 127.8,5.8 121.3,5.8 	"/>
	<path class="st1" d="M62.2,29.9l0.9,2.1h-1.8L62.2,29.9z M62.5,28.6h-0.6l-2.5,5.8h0.8l0.7-1.7h2.5l0.8,1.7h0.8L62.5,28.6z"/>
	<path class="st2" d="M70.8,31.6h-1.9v0.7H70v1.2c-0.4,0.1-0.8,0.2-1.3,0.2c-1.4,0-2.3-0.9-2.3-2.2c0-1.3,1-2.2,2.2-2.2
		c0.7,0,1.4,0.2,2.1,0.6v-0.8c-0.9-0.4-1.4-0.5-2.1-0.5c-1.8,0-3.1,1.3-3.1,3c0,1.7,1.3,2.9,3.1,2.9c0.8,0,1.4-0.1,2.2-0.5V31.6z"/>
	<path class="st1" d="M73.3,29.4h0.5c0.8,0,1.1,0.3,1.1,0.9c0,0.5-0.2,0.9-1.1,0.9h-0.5V29.4z M72.5,28.6v5.8h0.8v-2.5h0.3
		c0.4,0,0.8,0.1,1.5,1.3l0.8,1.2h1c-0.4-0.6-0.5-0.7-0.8-1.1c-0.4-0.7-0.8-1.3-1.3-1.6c0.6-0.2,1-0.7,1-1.4c0-1-0.7-1.6-1.9-1.6
		H72.5z"/>
	<rect x="78" y="28.6" class="st2" width="0.8" height="5.8"/>
	<path class="st2" d="M85.5,29c-0.8-0.3-1.4-0.5-2-0.5c-1.8,0-3.2,1.3-3.2,3.1c0,1.2,0.9,2.9,3.1,2.9c0.9,0,1.5-0.2,2.1-0.5v-0.9
		c-0.7,0.4-1.4,0.7-2,0.7c-1.4,0-2.3-0.9-2.3-2.2c0-1.3,1-2.2,2.3-2.2c0.7,0,1.3,0.2,2,0.6V29z"/>
	<path class="st2" d="M91.8,28.6H91V32c0,0.5-0.1,1-0.4,1.3c-0.3,0.3-0.7,0.5-1.4,0.5c-0.5,0-0.9-0.2-1.2-0.5
		c-0.3-0.3-0.3-0.5-0.3-1.2v-3.4h-0.8v3.6c0,1.6,1.2,2.3,2.4,2.3c1.7,0,2.6-0.9,2.6-2.4V28.6z"/>
	<polygon class="st2" points="94.2,28.6 93.4,28.6 93.4,34.4 96.8,34.4 96.8,33.7 94.2,33.7 	"/>
	<polygon class="st2" points="101.4,28.6 96.5,28.6 96.5,29.4 98.5,29.4 98.5,34.4 99.4,34.4 99.4,29.4 101.4,29.4 	"/>
	<path class="st2" d="M107.4,28.6h-0.8V32c0,0.5-0.1,1-0.4,1.3c-0.3,0.3-0.7,0.5-1.4,0.5c-0.5,0-0.9-0.2-1.2-0.5
		c-0.3-0.3-0.3-0.5-0.3-1.2v-3.4h-0.8v3.6c0,1.6,1.2,2.3,2.4,2.3c1.7,0,2.6-0.9,2.6-2.4V28.6z"/>
	<path class="st1" d="M109.9,29.4h0.5c0.8,0,1.1,0.3,1.1,0.9c0,0.5-0.2,0.9-1.1,0.9h-0.5V29.4z M109,28.6v5.8h0.8v-2.5h0.3
		c0.4,0,0.8,0.1,1.5,1.3l0.8,1.2h1c-0.4-0.6-0.5-0.7-0.8-1.1c-0.4-0.7-0.8-1.3-1.3-1.6c0.6-0.2,1-0.7,1-1.4c0-1-0.7-1.6-1.9-1.6H109
		z"/>
	<polygon class="st2" points="117.8,28.6 114.6,28.6 114.6,34.4 117.9,34.4 117.9,33.7 115.4,33.7 115.4,31.9 117.8,31.9 
		117.8,31.1 115.4,31.1 115.4,29.4 117.8,29.4 	"/>
</g>
</svg>
