<?xml version="1.0" encoding="utf-8"?>
<!-- Generator: Adobe Illustrator 24.2.3, SVG Export Plug-In . SVG Version: 6.00 Build 0)  -->
<svg version="1.1" id="Capa_1" xmlns="http://www.w3.org/2000/svg" xmlns:xlink="http://www.w3.org/1999/xlink" x="0px" y="0px"
	 viewBox="0 0 796.3 103.4" style="enable-background:new 0 0 796.3 103.4;" xml:space="preserve">
<style type="text/css">
	.st0{fill:#FFFFFF;}
	.st1{fill-rule:evenodd;clip-rule:evenodd;fill:#FFFFFF;}
	.st2{fill:#FF2E34;}
</style>
<rect class="st0" width="139.2" height="103.4"/>
<path class="st1" d="M201.4,45.1c7,3.4,12.1,7.1,15.1,11.3c3,4.1,4.5,9.2,4.5,15.4c0,9-2.9,16.5-8.7,22.1
	c-5.8,5.7-13.3,8.5-22.6,8.5c-5.9,0-11.2-1.2-16.1-3.5c-4.9-2.2-9.5-5.8-13.8-10.5l10.4-13.6c2.9,3.3,5.9,5.9,9,7.6
	c3.2,1.7,6.4,2.6,9.7,2.6c3.6,0,6.4-1.1,8.8-3.2c2.2-2.1,3.3-4.9,3.3-8.4c0-2.4-0.6-4.5-1.9-6.1c-1.3-1.6-3.9-3.5-7.9-5.4l-10.1-5.2
	c-7-3.6-12-7.3-14.9-11.5c-2.9-4-4.3-9-4.3-15c0-8.3,2.8-15,8.4-20.5c5.6-5.5,12.7-8.2,21.2-8.2c6,0,11.3,1.1,16,3.3
	c4.5,2.3,8.6,5.7,11.8,10.1l-11.9,12.2c-2.4-2.9-4.8-4.9-7.3-6.3c-2.5-1.3-5.2-2-8.2-2c-2.9,0-5.2,0.9-7.1,2.8
	c-1.9,1.8-2.8,4.1-2.8,7c0,2.3,0.7,4.4,2,6.2s3.5,3.4,6.4,4.8L201.4,45.1z M231.7,100.3V3.8h21.6v96.5H231.7z M314.1,100.3
	l-17.8-58.2l-0.1-0.3c-2-6.8-3.5-12.2-4.2-16.1v1.7c0,1.8,0,3.9-0.2,6.4c-0.2,2.4-0.5,5-0.8,8.1l-6.5,58.4h-18.8l14.2-96.5h21.2
	l17.5,56.5c0.8,2.4,1.4,4.9,2,7.5s1.2,5.2,1.5,7.9c0.4-2.7,0.9-5.3,1.4-7.8c0.6-2.6,1.3-5.1,2-7.6l17.7-56.5h21.2l14.2,96.5h-18.7
	l-6.6-58.4c-0.4-3-0.7-5.6-0.8-7.9c-0.2-2.2-0.2-4.5-0.2-6.6v-1.6c-0.5,2.2-1.1,4.6-1.6,7c-0.7,2.5-1.5,5.6-2.7,9.3l-17.9,58.2
	H314.1z M423.8,83.3c5.8,0,10.5-2.9,14.1-8.5c3.5-5.7,5.3-13.2,5.3-22.7c0-9.6-1.8-17.1-5.4-22.8s-8.4-8.5-14.3-8.5
	c-5.8,0-10.4,2.8-14,8.5c-3.5,5.7-5.2,13.2-5.2,22.7c0,9.6,1.7,17.2,5.3,22.8C413.1,80.5,417.8,83.3,423.8,83.3L423.8,83.3z
	 M423.9,102.4c-6.3,0-11.8-1.2-16.9-3.4c-5-2.3-9.3-5.7-13.1-10.2c-3.9-4.9-6.9-10.4-8.9-16.6c-2-6.1-3-12.8-3-20.2s1-14.2,3-20.4
	s5-11.6,9-16.5c3.5-4.4,7.8-7.8,12.8-10.1c5.1-2.2,10.7-3.4,16.9-3.4c6.2,0,11.7,1.2,16.7,3.4c5,2.3,9.3,5.7,13,10.1
	c3.8,4.8,6.7,10.3,8.7,16.5s3,13,3,20.5c0,7.4-1,14.1-2.9,20.3c-1.9,6.1-4.8,11.5-8.7,16.4c-3.7,4.4-8,7.8-13,10.1
	C435.6,101.2,430.1,102.4,423.9,102.4L423.9,102.4z M529.5,100.3l-31.7-53.1c-1-1.5-1.8-3.6-2.7-5.9c-0.9-2.5-1.6-5.2-2.4-8.2
	c0.4,3.8,0.7,7.4,0.9,10.9c0.2,3.4,0.3,6.5,0.3,9.4v46.9H475V3.8h18.7L524,55c1.6,2.7,2.9,5.3,3.9,8.1c1.1,2.7,1.8,5.4,2.4,8.3
	c-0.4-4-0.7-7.8-0.9-11.3c-0.3-3.5-0.4-6.4-0.4-9V3.8h19v96.5H529.5z M583,82l-5.1,18.4h-21.8l31.4-96.5h23.6l31.4,96.5h-21.7
	L615.7,82H583z M586,66.6h25L598.6,21L586,66.6z M682.3,45.1c7.1,3.4,12.1,7.1,15.1,11.3c3.1,4.1,4.5,9.2,4.5,15.4
	c0,9-2.9,16.5-8.6,22.1c-5.8,5.7-13.4,8.5-22.7,8.5c-5.8,0-11.2-1.2-16.1-3.5c-4.9-2.2-9.4-5.8-13.8-10.5l10.5-13.6
	c2.8,3.3,5.8,5.9,9,7.6s6.4,2.6,9.6,2.6c3.6,0,6.5-1.1,8.8-3.2c2.2-2.1,3.4-4.9,3.4-8.4c0-2.4-0.7-4.5-2-6.1s-3.9-3.5-7.9-5.4
	L662,56.7c-7-3.6-11.9-7.3-14.9-11.5c-2.9-4-4.3-9-4.3-15c0-8.3,2.8-15,8.4-20.5c5.7-5.5,12.7-8.2,21.3-8.2c6,0,11.3,1.1,15.9,3.3
	c4.6,2.3,8.6,5.7,11.9,10.1l-12,12.2c-2.4-2.9-4.8-4.9-7.3-6.3c-2.4-1.3-5.2-2-8.1-2s-5.3,0.9-7.2,2.8c-1.8,1.8-2.8,4.1-2.8,7
	c0,2.3,0.7,4.4,2,6.2c1.4,1.8,3.6,3.4,6.4,4.8L682.3,45.1z M744.4,45.1c7,3.4,12,7.1,15.1,11.3c3,4.1,4.5,9.2,4.5,15.4
	c0,9-2.9,16.5-8.7,22.1c-5.8,5.7-13.3,8.5-22.6,8.5c-5.9,0-11.3-1.2-16.2-3.5c-4.8-2.2-9.4-5.8-13.8-10.5l10.5-13.6
	c2.9,3.3,5.9,5.9,9,7.6s6.4,2.6,9.6,2.6c3.7,0,6.5-1.1,8.8-3.2c2.2-2.1,3.4-4.9,3.4-8.4c0-2.4-0.7-4.5-1.9-6.1
	c-1.3-1.6-3.9-3.5-7.9-5.4l-10.1-5.2c-7-3.6-12-7.3-14.9-11.5c-3-4-4.4-9-4.4-15c0-8.3,2.8-15,8.5-20.5c5.6-5.5,12.7-8.2,21.2-8.2
	c6,0,11.3,1.1,15.9,3.3c4.6,2.3,8.7,5.7,11.9,10.1l-11.9,12.4c-2.4-2.9-4.9-4.9-7.3-6.3c-2.5-1.3-5.2-2-8.2-2
	c-2.9,0-5.3,0.9-7.1,2.8c-1.9,1.8-2.9,4.1-2.9,7c0,2.3,0.7,4.4,2.1,6.2c1.3,1.8,3.5,3.4,6.3,4.8L744.4,45.1z M774.7,100.3V3.8h21.6
	v96.5H774.7z"/>
<path class="st2" d="M119.9,41.7C103,59.3,90.4,79.2,81.7,100.6L73,95.1c8.5-19.1,20.2-36.9,35.6-52.8
	c10.1-10.6,20.4-17.8,30.5-22.4v-3c-13.4,4-27.5,12-41.2,26.5c-13.8,14.2-24.6,30-32.8,46.9L56,84.5C63.8,69.9,73.7,56,85.8,43.4
	c17.9-18.8,36.5-26.8,53.3-29V0H0v103.4h139.2V25.5C132.8,29.7,126.3,35,119.9,41.7z M5.8,53l-3.6-2.2C13.3,41,24.3,35,35.1,31.5
	C25.4,36.1,15.5,42.9,5.8,53z M11.8,56.8c1.3-1.3,2.7-2.8,3.9-4.1C36.1,31.3,57.2,23.9,75.8,23c-15.5,3.2-32.1,11.3-48.3,28.2
	c-3.1,3.3-6.1,6.5-8.9,10L11.8,56.8z M25.2,65.2c3.9-5.2,8.4-10.2,13-15C56.5,30.9,75.4,23,92.6,20.9c-13.4,4-27.3,12.1-41,26.5
	C44.7,54.5,38.4,62.1,32.9,70L25.2,65.2z M39.9,74.4c6.4-9.9,13.8-19.2,22.3-28.1c19.9-21,40.7-28.5,59-29.6
	c-14.8,3.4-30.6,11.6-46,27.7c-10.6,11-19.4,22.8-26.7,35.4L39.9,74.4z"/>
</svg>
